<svg xmlns="http://www.w3.org/2000/svg" version="1.1" xmlns:xlink="http://www.w3.org/1999/xlink" xmlns:svgjs="http://svgjs.dev/svgjs" viewBox="0 0 1422 800"><defs><linearGradient x1="50%" y1="0%" x2="50%" y2="100%" id="ccchaos-grad"><stop stop-color="hsl(206, 75%, 49%)" stop-opacity="1" offset="0%"></stop><stop stop-color="hsl(331, 90%, 56%)" stop-opacity="1" offset="100%"></stop></linearGradient></defs><g stroke-width="2" stroke="url(#ccchaos-grad)" fill="none" stroke-linecap="round"><path d="M692.81 127.67C702.25 126.87 711.67 126.28 721.02 125.91 730.4 125.3 739.73 124.98 749.03 124.99 758.36 124.86 767.67 125.13 776.97 125.83 786.34 126.51 795.73 127.7 805.13 129.4 814.64 131.19 824.2 133.55 833.79 136.48 843.53 139.57 853.32 143.26 863.15 147.51 873.1 151.97 883.08 157.01 893.03 162.58 903.05 168.37 912.99 174.67 922.76 181.45 932.47 188.41 941.91 195.82 950.95 203.61 959.75 211.56 968.01 219.86 975.58 228.46 982.7 237.18 988.98 246.16 994.3 255.36 998.98 264.64 1002.59 274.11 1005.04 283.73 1006.79 293.39 1007.38 303.18 1006.8 313.05 1005.64 322.95 1003.44 332.92 1000.29 342.92 996.88 352.94 992.79 362.98 988.17 372.99 983.74 383.01 979.13 393 974.49 402.91 970.53 412.83 966.92 422.43 963.74 431.68 961.47 440.92 959.69 449.8 958.38 458.31 957.94 466.8 957.84 474.9 958 482.6 958.77 490.27 959.56 497.54 960.25 504.4 961.21 511.24 961.82 517.69 961.98 523.75 961.8 532.69 957.56 549.03 953.22 556.61 949.67 561.78 945.3 566.79 940.14 571.71 934.6 576.94 928.33 582.16 921.4 587.43 914.16 593.12 906.34 598.93 898.04 604.91 889.52 611.36 880.59 618.02 871.34 624.87 861.97 632.18 852.34 639.65 842.52 647.21 832.65 655.11 822.64 662.98 812.55 670.7 802.44 678.5 792.28 685.94 782.09 692.88 771.91 699.57 761.72 705.5 751.55 710.51 741.39 714.93 731.24 718.21 721.13 720.23 711.02 721.4 701.17 721.19 691.59 719.65 682 717.29 672.66 713.7 663.57 708.98 654.45 703.66 645.56 697.4 636.9 690.37 628.2 683.02 619.7 675.11 611.42 666.79 603.07 658.44 594.9 649.88 586.94 641.2 578.88 632.74 570.99 624.28 563.28 615.91 555.47 607.88 547.83 599.97 540.36 592.21 532.79 584.84 525.4 577.58 518.21 570.44 510.92 563.64 503.85 556.9 497.02 550.18 490.14 543.72 483.53 537.21 477.22 530.6 470.92 524.18 464.96 517.59 459.39 510.81 453.88 504.13 448.8 497.19 444.19 490 439.7 482.84 435.72 475.38 432.28 467.6 429.01 459.84 426.31 451.74 424.22 443.32 422.3 434.89 420.99 426.13 420.32 417.04 419.82 407.95 419.94 398.54 420.7 388.83 421.58 379.13 423.05 369.36 425.05 359.58 427.1 349.81 429.65 340.04 432.63 330.32 435.6 320.62 438.96 310.98 442.68 301.45 446.31 291.97 450.26 282.62 454.49 273.45 458.59 264.35 462.94 255.46 467.54 246.82 471.96 238.28 476.62 230.04 481.5 222.13 486.21 214.35 491.15 206.94 496.32 199.94 501.34 193.1 506.6 186.7 512.11 180.77 517.51 175.01 523.18 169.74 529.12 164.99 534.99 160.39 541.15 156.31 547.6 152.74 554.02 149.29 560.74 146.33 567.76 143.87 574.77 141.44 582.08 139.45 589.67 137.89 597.26 136.26 605.14 135 613.29 134.07 621.43 132.97 629.84 132.14 638.47 131.56 647.11 130.71 655.97 130.06 665.04 129.59 674.1 128.79 683.36 128.14 692.81 127.67" stroke-dasharray="6 1" transform="rotate(0, 711, 400)" opacity="0.88"></path><path d="M694.74 139.07C703.87 138.28 712.99 137.7 722.09 137.33 731.2 136.73 740.31 136.41 749.4 136.39 758.53 136.24 767.67 136.47 776.81 137.09 786.01 137.69 795.25 138.76 804.51 140.3 813.86 141.93 823.25 144.08 832.68 146.75 842.21 149.58 851.77 152.96 861.35 156.88 871.01 160.98 880.66 165.63 890.23 170.79 899.83 176.15 909.29 182 918.54 188.31 927.69 194.8 936.52 201.73 944.92 209.03 953.06 216.49 960.63 224.29 967.52 232.4 973.96 240.62 979.58 249.12 984.29 257.83 988.4 266.63 991.51 275.63 993.54 284.77 994.95 293.97 995.29 303.3 994.56 312.71 993.33 322.16 991.17 331.68 988.14 341.23 984.9 350.81 981.04 360.4 976.7 369.96 972.55 379.54 968.22 389.09 963.84 398.56 960.08 408.03 956.61 417.19 953.51 426.03 951.22 434.85 949.36 443.34 947.91 451.47 947.26 459.59 946.91 467.34 946.79 474.73 947.27 482.09 947.77 489.1 948.2 495.73 948.93 502.36 949.37 508.64 949.42 514.57 949.23 523.39 945.49 539.75 941.67 547.48 938.57 552.76 934.71 557.94 930.11 563.04 925.19 568.44 919.57 573.86 913.31 579.33 906.77 585.18 899.66 591.16 892.04 597.27 884.23 603.81 875.98 610.52 867.39 617.36 858.67 624.61 849.66 631.97 840.43 639.37 831.13 647.03 821.66 654.62 812.07 662.03 802.46 669.47 792.76 676.55 783 683.11 773.24 689.41 763.44 694.99 753.64 699.7 743.84 703.85 734.04 706.93 724.25 708.83 714.46 709.96 704.9 709.81 695.59 708.41 686.26 706.26 677.16 702.95 668.3 698.58 659.4 693.64 650.71 687.81 642.24 681.23 633.72 674.32 625.4 666.84 617.27 658.94 609.07 650.98 601.05 642.75 593.21 634.38 585.28 626.15 577.52 617.89 569.93 609.65 562.25 601.7 554.73 593.83 547.38 586.06 539.94 578.63 532.68 571.29 525.62 564.06 518.49 557.14 511.56 550.26 504.89 543.42 498.17 536.83 491.72 530.21 485.58 523.52 479.46 517.01 473.67 510.38 468.27 503.6 462.94 496.92 458.03 490.04 453.58 482.93 449.26 475.88 445.43 468.57 442.14 460.99 439.01 453.43 436.43 445.57 434.45 437.44 432.64 429.3 431.42 420.86 430.82 412.14 430.39 403.41 430.56 394.4 431.35 385.12 432.26 375.84 433.74 366.52 435.74 357.2 437.8 347.89 440.33 338.59 443.28 329.35 446.22 320.14 449.54 311 453.21 301.98 456.79 293 460.69 284.17 464.85 275.52 468.89 266.94 473.18 258.57 477.7 250.47 482.06 242.46 486.64 234.73 491.43 227.34 496.06 220.08 500.9 213.17 505.96 206.67 510.86 200.3 516 194.36 521.36 188.88 526.61 183.54 532.11 178.66 537.85 174.28 543.52 170.02 549.46 166.24 555.66 162.95 561.82 159.75 568.26 157 574.98 154.71 581.67 152.44 588.66 150.57 595.91 149.1 603.15 147.56 610.67 146.34 618.45 145.44 626.22 144.37 634.25 143.55 642.52 142.96 650.78 142.12 659.27 141.46 667.99 140.98 676.69 140.18 685.62 139.54 694.74 139.07" stroke-dasharray="5 3" transform="rotate(4.04, 711, 400)" opacity="0.37"></path><path d="M697.28 150.46C706.1 149.69 714.93 149.12 723.77 148.76 732.62 148.17 741.49 147.85 750.36 147.82 759.27 147.65 768.2 147.84 777.15 148.4 786.15 148.92 795.19 149.88 804.25 151.28 813.39 152.75 822.56 154.7 831.75 157.15 841.02 159.72 850.3 162.81 859.55 166.41 868.85 170.17 878.1 174.45 887.24 179.21 896.36 184.15 905.3 189.57 913.99 195.42 922.55 201.45 930.75 207.89 938.49 214.71 945.96 221.66 952.86 228.97 959.08 236.58 964.88 244.3 969.88 252.29 974.01 260.51 977.6 268.81 980.25 277.32 981.91 285.97 983.01 294.69 983.14 303.54 982.3 312.48 981.03 321.46 978.91 330.52 976.02 339.61 972.96 348.73 969.33 357.86 965.26 366.98 961.38 376.11 957.32 385.21 953.19 394.24 949.63 403.28 946.29 412.02 943.27 420.46 940.99 428.89 939.07 437 937.5 444.78 936.65 452.55 936.08 459.99 935.71 467.1 935.9 474.19 936.13 480.96 936.31 487.4 936.8 493.85 937.05 500 936.98 505.84 936.71 514.57 933.33 531.01 929.94 538.88 927.21 544.28 923.79 549.6 919.69 554.87 915.32 560.42 910.29 566 904.65 571.63 898.75 577.61 892.3 583.7 885.35 589.9 878.21 596.48 870.64 603.18 862.69 609.99 854.62 617.13 846.24 624.34 837.6 631.53 828.89 638.94 819.98 646.24 810.91 653.32 801.82 660.4 792.6 667.1 783.29 673.29 773.98 679.22 764.6 684.46 755.19 688.86 745.78 692.75 736.33 695.65 726.87 697.44 717.42 698.53 708.17 698.42 699.13 697.15 690.08 695.2 681.24 692.16 672.6 688.13 663.93 683.57 655.45 678.15 647.17 672 638.84 665.53 630.69 658.5 622.72 651.02 614.69 643.45 606.82 635.59 599.11 627.54 591.34 619.59 583.71 611.56 576.25 603.51 568.71 595.69 561.33 587.9 554.12 580.19 546.83 572.76 539.72 565.4 532.81 558.12 525.84 551.12 519.09 544.16 512.58 537.24 506.04 530.55 499.78 523.84 493.82 517.09 487.89 510.52 482.3 503.84 477.08 497.06 471.94 490.38 467.21 483.54 462.94 476.52 458.8 469.56 455.13 462.38 451.98 454.98 449 447.6 446.56 439.97 444.68 432.1 442.98 424.23 441.85 416.1 441.32 407.73 440.96 399.35 441.18 390.72 442 381.85 442.94 372.99 444.43 364.11 446.42 355.24 448.47 346.39 450.97 337.56 453.88 328.81 456.79 320.08 460.07 311.44 463.67 302.92 467.21 294.45 471.04 286.13 475.14 278.01 479.12 269.94 483.34 262.1 487.79 254.52 492.08 247.03 496.59 239.82 501.3 232.94 505.85 226.17 510.6 219.76 515.55 213.73 520.36 207.82 525.38 202.32 530.61 197.26 535.72 192.32 541.07 187.81 546.64 183.77 552.12 179.83 557.86 176.33 563.85 173.3 569.77 170.32 575.96 167.77 582.41 165.64 588.83 163.51 595.51 161.75 602.46 160.36 609.38 158.88 616.58 157.71 624.02 156.83 631.45 155.78 639.13 154.96 647.05 154.37 654.97 153.52 663.12 152.86 671.5 152.36 679.87 151.57 688.46 150.94 697.28 150.46" stroke-dasharray="9 4" transform="rotate(8.08, 711, 400)" opacity="0.98"></path><path d="M700.33 161.86C708.84 161.1 717.39 160.55 725.95 160.19 734.53 159.62 743.14 159.31 751.78 159.26 760.44 159.08 769.13 159.24 777.85 159.74 786.62 160.2 795.42 161.06 804.23 162.34 813.1 163.66 822 165.43 830.89 167.67 839.83 170 848.76 172.82 857.63 176.12 866.52 179.55 875.32 183.48 883.97 187.86 892.57 192.39 900.95 197.39 909.05 202.8 916.99 208.37 924.55 214.34 931.65 220.67 938.46 227.14 944.7 233.95 950.28 241.05 955.46 248.27 959.88 255.75 963.48 263.47 966.59 271.26 968.83 279.27 970.15 287.43 970.99 295.65 970.94 304.01 970.02 312.47 968.73 320.97 966.68 329.55 963.93 338.17 961.04 346.82 957.65 355.5 953.85 364.16 950.23 372.84 946.42 381.5 942.54 390.1 939.17 398.71 935.98 407.04 933.05 415.1 930.78 423.14 928.81 430.9 927.13 438.36 926.12 445.81 925.34 452.96 924.75 459.81 924.67 466.67 924.64 473.23 924.58 479.5 924.83 485.8 924.88 491.84 924.67 497.62 924.28 506.29 921.1 522.82 918.05 530.83 915.63 536.33 912.58 541.77 908.92 547.18 905.03 552.86 900.52 558.56 895.45 564.31 890.15 570.38 884.31 576.53 877.99 582.77 871.49 589.34 864.56 596 857.24 602.72 849.8 609.72 842.04 616.74 833.99 623.71 825.88 630.84 817.53 637.82 809 644.56 800.44 651.28 791.72 657.61 782.88 663.43 774.04 669 765.1 673.9 756.09 678.01 747.08 681.65 738.02 684.36 728.91 686.04 719.81 687.09 710.87 687.02 702.13 685.88 693.37 684.11 684.79 681.34 676.39 677.63 667.97 673.42 659.71 668.4 651.63 662.68 643.51 656.65 635.54 650.05 627.74 643.01 619.89 635.85 612.18 628.38 604.63 620.68 597.02 613.04 589.55 605.28 582.24 597.46 574.86 589.81 567.63 582.17 560.58 574.56 553.46 567.18 546.52 559.85 539.78 552.58 533 545.55 526.43 538.55 520.1 531.59 513.77 524.84 507.71 518.08 501.95 511.3 496.23 504.68 490.84 497.99 485.82 491.21 480.89 484.54 476.36 477.75 472.27 470.81 468.31 463.93 464.81 456.88 461.82 449.64 458.99 442.43 456.68 435.02 454.92 427.4 453.33 419.78 452.3 411.95 451.84 403.91 451.54 395.86 451.8 387.6 452.65 379.14 453.61 370.68 455.1 362.23 457.07 353.81 459.11 345.4 461.58 337.05 464.45 328.77 467.31 320.52 470.54 312.37 474.08 304.36 477.56 296.39 481.33 288.58 485.36 280.97 489.27 273.42 493.43 266.09 497.79 259.02 502.02 252.04 506.46 245.33 511.08 238.95 515.56 232.66 520.23 226.71 525.09 221.14 529.8 215.67 534.72 210.59 539.83 205.92 544.82 201.35 550.03 197.19 555.45 193.47 560.77 189.82 566.33 186.59 572.12 183.78 577.84 181.01 583.81 178.63 590.01 176.64 596.18 174.63 602.6 172.97 609.26 171.65 615.9 170.23 622.79 169.09 629.93 168.23 637.04 167.19 644.41 166.37 652.01 165.77 659.59 164.93 667.42 164.25 675.48 163.75 683.53 162.96 691.81 162.33 700.33 161.86" stroke-dasharray="5 7" transform="rotate(12.12, 711, 400)" opacity="0.96"></path><path d="M703.77 173.25C711.98 172.52 720.24 171.98 728.52 171.63 736.82 171.08 745.16 170.77 753.52 170.72 761.91 170.54 770.34 170.67 778.79 171.12 787.28 171.52 795.79 172.3 804.31 173.47 812.87 174.65 821.43 176.26 829.97 178.3 838.53 180.41 847.05 182.98 855.49 186 863.92 189.13 872.22 192.71 880.34 196.73 888.39 200.88 896.19 205.47 903.68 210.45 911 215.58 917.93 221.08 924.37 226.95 930.55 232.93 936.16 239.25 941.13 245.86 945.72 252.57 949.6 259.55 952.71 266.76 955.39 274.05 957.25 281.54 958.29 289.2 958.9 296.92 958.71 304.79 957.73 312.76 956.45 320.77 954.47 328.87 951.87 337.03 949.17 345.2 946 353.42 942.45 361.63 939.08 369.86 935.53 378.08 931.89 386.26 928.71 394.45 925.66 402.39 922.82 410.07 920.58 417.75 918.57 425.18 916.82 432.33 915.67 439.48 914.71 446.37 913.9 453 913.59 459.63 913.31 466.01 913.02 472.14 912.96 481.28 911.97 498.6 910.67 506.88 909.64 512.47 908.12 517.96 906.08 523.35 903.9 528.92 901.17 534.46 897.88 539.98 894.4 545.74 890.36 551.53 885.78 557.36 881.02 563.46 875.75 569.63 870.01 575.87 864.11 582.38 857.78 588.95 851.06 595.54 844.24 602.36 837.07 609.16 829.61 615.87 822.08 622.71 814.3 629.37 806.31 635.76 798.28 642.11 790.07 648.06 781.72 653.52 773.35 658.73 764.86 663.31 756.28 667.14 747.69 670.54 739.02 673.07 730.28 674.65 721.55 675.65 712.95 675.62 704.51 674.59 696.06 673.01 687.76 670.48 679.61 667.08 671.45 663.21 663.43 658.58 655.56 653.28 647.66 647.67 639.9 641.51 632.29 634.91 624.63 628.17 617.11 621.09 609.73 613.77 602.3 606.47 595.01 599.01 587.86 591.46 580.67 584.04 573.63 576.58 566.75 569.13 559.83 561.86 553.08 554.61 546.53 547.4 539.95 540.39 533.59 533.41 527.47 526.46 521.36 519.69 515.52 512.92 509.97 506.13 504.48 499.5 499.31 492.81 494.5 486.06 489.79 479.42 485.46 472.68 481.57 465.82 477.8 459.04 474.49 452.11 471.66 445.03 468.99 437.99 466.82 430.78 465.17 423.4 463.7 416.03 462.76 408.48 462.36 400.75 462.13 393.03 462.43 385.13 463.3 377.06 464.28 369 465.76 360.96 467.71 352.98 469.72 345.01 472.15 337.11 474.97 329.31 477.79 321.53 480.95 313.87 484.42 306.35 487.84 298.87 491.54 291.56 495.49 284.45 499.34 277.4 503.42 270.57 507.7 264 511.87 257.5 516.23 251.27 520.77 245.36 525.17 239.54 529.76 234.04 534.52 228.89 539.16 223.84 543.98 219.15 548.98 214.85 553.86 210.63 558.94 206.79 564.22 203.35 569.4 199.98 574.8 196.98 580.41 194.38 585.95 191.8 591.71 189.57 597.71 187.71 603.65 185.81 609.82 184.23 616.24 182.96 622.61 181.59 629.23 180.48 636.08 179.63 642.91 178.6 649.98 177.79 657.28 177.17 664.56 176.33 672.08 175.65 679.84 175.13 687.58 174.35 695.56 173.72 703.77 173.25" stroke-dasharray="9 5" transform="rotate(16.16, 711, 400)" opacity="0.40"></path><path d="M707.48 184.65C715.39 183.93 723.34 183.41 731.33 183.08 739.34 182.55 747.38 182.25 755.45 182.2 763.55 182.02 771.67 182.13 779.81 182.54 787.98 182.89 796.16 183.6 804.34 184.66 812.53 185.73 820.72 187.19 828.85 189.04 836.99 190.96 845.07 193.3 853.03 196.05 860.95 198.89 868.73 202.16 876.29 205.84 883.77 209.63 890.97 213.82 897.84 218.4 904.54 223.1 910.84 228.16 916.66 233.57 922.21 239.08 927.22 244.91 931.62 251.04 935.67 257.25 939.06 263.73 941.72 270.44 944 277.22 945.55 284.22 946.33 291.38 946.75 298.6 946.45 305.96 945.44 313.45 944.17 320.97 942.29 328.59 939.84 336.27 937.32 343.98 934.38 351.73 931.08 359.5 927.96 367.28 924.65 375.07 921.24 382.84 918.24 390.61 915.34 398.17 912.6 405.5 910.39 412.83 908.37 419.93 906.56 426.8 905.28 433.67 904.16 440.32 903.18 446.73 902.64 453.16 902.14 459.38 901.62 465.38 901.24 474.36 899.81 491.53 898.44 499.83 897.42 505.44 895.97 510.97 894.07 516.42 892.09 522.05 889.6 527.65 886.62 533.24 883.49 539.05 879.85 544.88 875.72 550.73 871.43 556.83 866.67 562.97 861.45 569.15 856.1 575.56 850.34 582 844.19 588.43 837.94 595.04 831.35 601.59 824.46 608.03 817.5 614.54 810.27 620.86 802.81 626.9 795.32 632.88 787.62 638.47 779.76 643.57 771.88 648.44 763.85 652.7 755.7 656.26 747.55 659.42 739.29 661.78 730.94 663.25 722.59 664.21 714.35 664.21 706.23 663.3 698.11 661.88 690.1 659.58 682.23 656.47 674.34 652.94 666.58 648.68 658.94 643.79 651.28 638.6 643.75 632.87 636.34 626.7 628.9 620.38 621.59 613.72 614.4 606.8 607.18 599.86 600.09 592.73 593.14 585.49 586.16 578.33 579.32 571.11 572.64 563.85 565.94 556.75 559.41 549.63 553.07 542.54 546.73 535.61 540.59 528.69 534.7 521.79 528.83 515.05 523.22 508.31 517.91 501.56 512.65 494.94 507.72 488.29 503.14 481.6 498.65 475 494.54 468.33 490.85 461.58 487.29 454.89 484.16 448.09 481.5 441.18 478.99 434.3 476.96 427.29 475.44 420.15 474.08 413.02 473.22 405.74 472.9 398.33 472.73 390.92 473.07 383.36 473.95 375.68 474.94 368 476.41 360.37 478.33 352.82 480.31 345.28 482.7 337.82 485.45 330.48 488.21 323.16 491.3 315.97 494.7 308.93 498.05 301.93 501.67 295.1 505.53 288.48 509.31 281.91 513.31 275.56 517.51 269.46 521.6 263.43 525.88 257.67 530.34 252.21 534.67 246.82 539.18 241.74 543.85 237 548.4 232.33 553.13 228 558.02 224.04 562.8 220.14 567.77 216.6 572.92 213.43 577.97 210.29 583.23 207.51 588.67 205.1 594.05 202.68 599.63 200.59 605.43 198.84 611.16 197.03 617.12 195.52 623.3 194.3 629.44 192.97 635.81 191.88 642.39 191.03 648.96 190.01 655.75 189.19 662.76 188.57 669.76 187.72 676.99 187.03 684.45 186.51 691.89 185.74 699.57 185.11 707.48 184.65" stroke-dasharray="6 5" transform="rotate(20.200000000000003, 711, 400)" opacity="0.30"></path><path d="M711.32 196.04C718.92 195.35 726.57 194.84 734.25 194.53 741.94 194.02 749.67 193.74 757.42 193.69 765.19 193.51 772.98 193.61 780.77 193.99 788.59 194.3 796.4 194.94 804.19 195.91 811.99 196.88 819.75 198.2 827.44 199.9 835.12 201.63 842.71 203.75 850.15 206.26 857.55 208.84 864.78 211.82 871.77 215.17 878.65 218.62 885.26 222.45 891.52 226.64 897.61 230.93 903.29 235.57 908.51 240.54 913.47 245.6 917.92 250.97 921.78 256.62 925.33 262.35 928.26 268.34 930.53 274.56 932.46 280.84 933.72 287.34 934.29 294.01 934.56 300.73 934.18 307.6 933.15 314.6 931.93 321.64 930.14 328.78 927.84 336 925.51 343.23 922.78 350.53 919.73 357.87 916.85 365.21 913.78 372.58 910.59 379.94 907.77 387.31 905.02 394.49 902.38 401.49 900.22 408.48 898.2 415.28 896.34 421.87 894.96 428.48 893.71 434.89 892.56 441.11 891.83 447.34 891.12 453.4 890.41 459.28 889.71 468.1 887.82 485.12 886.35 493.41 885.31 499.02 883.9 504.57 882.1 510.06 880.25 515.7 877.96 521.33 875.22 526.95 872.38 532.75 869.09 538.58 865.34 544.41 861.47 550.46 857.15 556.53 852.41 562.6 847.56 568.87 842.31 575.14 836.7 581.36 830.99 587.73 824.94 594.01 818.59 600.15 812.17 606.33 805.48 612.31 798.55 617.99 791.57 623.6 784.39 628.82 777.01 633.57 769.62 638.1 762.06 642.05 754.36 645.35 746.65 648.29 738.81 650.48 730.86 651.86 722.9 652.77 715.03 652.8 707.25 651.99 699.47 650.73 691.78 648.65 684.2 645.82 676.62 642.6 669.13 638.7 661.75 634.2 654.36 629.42 647.07 624.12 639.89 618.38 632.7 612.49 625.61 606.25 618.65 599.73 611.67 593.18 604.8 586.42 598.08 579.51 591.33 572.66 584.72 565.7 578.27 558.7 571.81 551.8 565.52 544.87 559.42 537.94 553.33 531.14 547.45 524.33 541.8 517.54 536.19 510.88 530.84 504.21 525.77 497.54 520.77 490.98 516.08 484.4 511.73 477.79 507.49 471.27 503.61 464.69 500.13 458.06 496.77 451.49 493.84 444.83 491.35 438.09 489 431.38 487.12 424.58 485.72 417.67 484.47 410.78 483.71 403.78 483.45 396.67 483.33 389.56 483.71 382.35 484.6 375.04 485.59 367.73 487.05 360.5 488.93 353.37 490.87 346.24 493.2 339.21 495.89 332.32 498.58 325.44 501.6 318.7 504.91 312.13 508.18 305.58 511.72 299.22 515.49 293.07 519.18 286.95 523.1 281.06 527.21 275.42 531.22 269.83 535.41 264.5 539.78 259.46 544.03 254.48 548.45 249.79 553.03 245.43 557.5 241.12 562.13 237.13 566.92 233.47 574.04 228.23 588.98 219.45 596.84 215.91 602.06 213.64 607.48 211.67 613.09 210.01 618.64 208.29 624.4 206.84 630.36 205.65 636.28 204.35 642.42 203.28 648.76 202.43 655.07 201.42 661.6 200.6 668.35 199.95 675.07 199.11 682.02 198.42 689.19 197.89 696.34 197.12 703.72 196.5 711.32 196.04" stroke-dasharray="5 6" transform="rotate(24.24, 711, 400)" opacity="0.83"></path><path d="M715.15 207.44C722.43 206.77 729.76 206.28 737.12 205.98 744.48 205.5 751.87 205.23 759.27 205.19 766.69 205.02 774.11 205.11 781.53 205.47 788.95 205.75 796.36 206.34 803.73 207.23 811.09 208.1 818.4 209.31 825.62 210.85 832.81 212.42 839.88 214.35 846.79 216.64 853.65 218.97 860.3 221.68 866.71 224.74 873.02 227.87 879.03 231.36 884.69 235.18 890.18 239.09 895.28 243.33 899.92 247.88 904.33 252.5 908.25 257.43 911.62 262.62 914.72 267.89 917.24 273.4 919.15 279.15 920.78 284.95 921.8 290.96 922.19 297.15 922.34 303.38 921.89 309.77 920.88 316.3 919.7 322.85 918.03 329.52 915.89 336.28 913.73 343.06 911.22 349.91 908.41 356.82 905.75 363.73 902.91 370.68 899.94 377.65 897.3 384.62 894.69 391.45 892.17 398.11 890.05 404.77 888.05 411.28 886.16 417.61 884.7 423.96 883.34 430.14 882.06 436.17 881.15 442.21 880.26 448.12 879.36 453.88 878.37 462.53 876.03 479.36 874.43 487.61 873.34 493.19 871.94 498.72 870.2 504.21 868.44 509.84 866.29 515.46 863.76 521.06 861.15 526.82 858.14 532.59 854.72 538.37 851.2 544.31 847.28 550.26 842.96 556.19 838.56 562.28 833.78 568.34 828.64 574.33 823.43 580.42 817.89 586.4 812.05 592.23 806.15 598.07 799.97 603.69 793.54 609.02 787.08 614.26 780.39 619.12 773.5 623.53 766.59 627.72 759.49 631.38 752.24 634.43 744.98 637.15 737.57 639.18 730.03 640.46 722.49 641.33 715 641.39 707.58 640.67 700.17 639.55 692.81 637.68 685.55 635.11 678.28 632.2 671.09 628.64 663.99 624.52 656.89 620.14 649.88 615.26 642.96 609.95 636.04 604.48 629.21 598.67 622.5 592.57 615.78 586.41 609.17 580.04 602.69 573.49 596.2 566.97 589.85 560.33 583.66 553.61 577.46 546.96 571.44 540.27 565.6 533.54 559.79 526.92 554.17 520.28 548.8 513.64 543.46 507.11 538.38 500.56 533.57 494.01 528.84 487.56 524.41 481.09 520.31 474.6 516.32 468.19 512.67 461.73 509.41 455.24 506.27 448.8 503.52 442.31 501.21 435.75 499.03 429.23 497.3 422.64 496.02 415.97 494.88 409.32 494.21 402.59 494.01 395.78 493.95 388.98 494.36 382.1 495.25 375.16 496.24 368.21 497.68 361.37 499.51 354.64 501.41 347.91 503.68 341.3 506.29 334.84 508.91 328.38 511.85 322.08 515.06 315.96 518.24 309.85 521.68 303.93 525.35 298.22 528.96 292.54 532.78 287.08 536.78 281.86 540.71 276.69 544.81 271.76 549.08 267.12 553.24 262.52 557.57 258.19 562.05 254.17 568.7 248.35 582.62 238.28 589.9 234.04 597.21 230.12 612.57 223.73 620.63 221.22 626.02 219.57 631.59 218.17 637.34 217.01 643.06 215.74 648.97 214.68 655.07 213.83 661.15 212.82 667.43 211.99 673.91 211.34 680.38 210.49 687.05 209.8 693.92 209.26 700.79 208.5 707.86 207.89 715.15 207.44" stroke-dasharray="7 11" transform="rotate(28.28, 711, 400)" opacity="0.50"></path><path d="M718.83 218.84C725.79 218.19 732.78 217.73 739.79 217.44 746.8 216.99 753.84 216.74 760.87 216.7 767.91 216.55 774.94 216.63 781.95 216.97 788.96 217.23 795.94 217.77 802.85 218.59 809.76 219.38 816.58 220.49 823.3 221.9 829.98 223.33 836.52 225.08 842.89 227.16 849.19 229.28 855.28 231.74 861.11 234.52 866.84 237.36 872.26 240.53 877.35 244.01 884.54 249.49 896.53 262.05 901.17 269.06 904.94 276.41 909.39 292.34 910.04 300.83 910.09 306.59 909.62 312.51 908.62 318.57 907.51 324.66 905.95 330.87 903.98 337.18 902 343.51 899.69 349.93 897.11 356.41 894.67 362.9 892.05 369.45 889.29 376.04 886.82 382.63 884.36 389.1 881.95 395.44 879.9 401.78 877.92 408 876.03 414.08 874.51 420.17 873.06 426.13 871.67 431.97 870.08 440.7 867.24 457.66 865.8 465.94 864.45 474.24 860.85 490.68 858.43 498.88 856.72 504.45 854.69 510 852.31 515.54 849.89 521.22 847.1 526.89 843.95 532.55 840.74 538.35 837.15 544.14 833.21 549.89 829.19 555.76 824.83 561.57 820.13 567.3 815.37 573.1 810.3 578.77 804.93 584.26 799.51 589.75 793.82 595.01 787.88 599.98 781.9 604.85 775.69 609.36 769.27 613.43 762.84 617.31 756.21 620.69 749.41 623.49 742.6 626 735.62 627.88 728.5 629.06 721.39 629.89 714.29 629.97 707.25 629.34 700.21 628.36 693.21 626.68 686.28 624.36 679.35 621.73 672.49 618.51 665.7 614.75 658.91 610.75 652.19 606.27 645.57 601.39 638.94 596.35 632.4 590.96 625.97 585.29 619.53 579.54 613.21 573.56 607.01 567.4 600.81 561.24 594.74 554.94 588.83 548.55 582.93 542.2 577.19 535.77 571.64 529.3 566.12 522.91 560.8 516.49 555.7 510.04 550.66 503.69 545.86 497.31 541.34 490.93 536.88 484.63 532.72 478.3 528.88 471.97 525.14 465.7 521.73 459.4 518.69 453.08 515.77 446.81 513.23 440.49 511.09 434.14 509.08 427.82 507.49 421.45 506.33 415.03 505.31 408.63 504.72 402.17 504.58 395.67 504.57 389.17 505.01 382.62 505.9 376.03 506.89 369.44 508.29 362.97 510.08 356.63 511.92 350.29 514.12 344.08 516.65 338.03 519.19 331.99 522.03 326.1 525.14 320.4 528.23 314.71 531.56 309.2 535.12 303.91 538.63 298.64 542.34 293.58 546.23 288.77 550.06 283.98 554.06 279.43 558.21 275.15 564.4 268.9 577.39 257.82 584.18 253 590.99 248.49 605.22 240.88 612.66 237.76 620.15 234.85 635.88 230.18 644.13 228.36 649.65 227.12 655.35 226.07 661.23 225.21 667.08 224.21 673.11 223.38 679.33 222.71 685.54 221.86 691.93 221.17 698.52 220.62 705.09 219.88 711.86 219.28 718.83 218.84" stroke-dasharray="8 3" transform="rotate(32.32, 711, 400)" opacity="0.84"></path><path d="M722.21 230.23C728.84 229.61 735.48 229.17 742.13 228.9 748.78 228.48 755.43 228.25 762.07 228.23 768.71 228.09 775.33 228.17 781.91 228.49 788.49 228.74 795.01 229.24 801.45 230 807.87 230.73 814.2 231.74 820.4 233.04 826.56 234.34 832.57 235.93 838.39 237.83 846.9 240.87 862.53 248.52 869.5 253.13 875.89 258.11 886.43 269.54 890.44 275.94 893.69 282.66 897.4 297.26 897.86 305.08 897.59 313.12 894.64 329.99 892.1 338.75 890.3 344.64 888.2 350.63 885.83 356.71 883.6 362.79 881.19 368.94 878.64 375.16 876.35 381.37 874.03 387.5 871.74 393.52 869.76 399.55 867.82 405.48 865.93 411.3 863.62 420.01 859.6 436.96 857.8 445.24 856.31 453.49 853.1 469.75 851.22 477.8 849.26 485.93 844.17 502.19 840.92 510.35 838.64 515.9 836.04 521.43 833.12 526.93 830.15 532.55 826.86 538.13 823.24 543.66 819.56 549.28 815.57 554.82 811.26 560.26 806.91 565.74 802.26 571.08 797.33 576.23 792.35 581.37 787.12 586.27 781.63 590.87 776.12 595.39 770.37 599.55 764.41 603.3 758.44 606.87 752.27 609.97 745.91 612.54 739.55 614.84 733.02 616.57 726.33 617.67 719.64 618.45 712.95 618.55 706.3 618 699.65 617.14 693.03 615.65 686.46 613.57 679.89 611.2 673.37 608.29 666.91 604.88 660.46 601.25 654.07 597.17 647.76 592.7 641.45 588.08 635.23 583.12 629.1 577.87 622.98 572.54 616.97 566.98 611.07 561.22 605.19 555.44 599.43 549.51 593.82 543.46 588.24 537.44 582.81 531.33 577.57 525.16 572.36 519.04 567.35 512.87 562.55 506.67 557.82 500.54 553.32 494.38 549.08 488.21 544.92 482.1 541.04 475.97 537.46 469.83 533.98 463.74 530.82 457.63 528 451.51 525.3 445.43 522.96 439.33 521 433.2 519.16 427.1 517.71 420.96 516.67 414.81 515.75 408.66 515.25 402.49 515.17 396.29 515.21 390.09 515.66 383.87 516.55 377.63 517.53 371.39 518.89 365.29 520.62 359.32 522.41 353.36 524.54 347.54 526.97 341.88 529.42 336.23 532.16 330.74 535.15 325.43 538.14 320.14 541.36 315.03 544.79 310.12 549.98 302.9 561.21 289.58 567.19 283.53 573.21 277.76 585.87 267.5 592.48 263.04 599.12 258.84 612.97 251.72 620.2 248.77 627.48 246 642.7 241.49 650.67 239.71 658.73 237.97 675.64 235.17 684.5 234.07 690.44 233.23 696.56 232.53 702.85 231.98 709.13 231.25 715.58 230.67 722.21 230.23" stroke-dasharray="5 9" transform="rotate(36.36, 711, 400)" opacity="0.23"></path><path d="M725.18 241.63C731.46 241.04 737.74 240.62 744.01 240.36 750.28 239.97 756.54 239.77 762.77 239.76 775.22 239.42 787.52 239.98 799.45 241.45 811.29 242.77 822.66 245.17 833.27 248.63 843.62 252.13 853.01 256.79 861.16 262.52 868.8 268.4 874.99 275.35 879.48 283.25 883.32 291.3 885.4 300.24 885.65 309.91 885.41 319.67 883.57 330.09 880.27 341 878.64 346.47 876.73 352.05 874.58 357.73 872.55 363.41 870.34 369.18 867.99 375.03 865.86 380.88 863.7 386.66 861.52 392.37 859.62 398.09 857.73 403.73 855.87 409.3 853 420.46 850.16 431.37 847.29 441.98 845.27 452.74 842.89 463.33 839.98 473.71 837.46 484.38 834.06 494.99 829.69 505.45 825.33 516.28 819.82 527.01 813.16 537.48 806.36 548.2 798.39 558.52 789.36 568.13 780.2 577.64 770.04 586.09 759.02 593.11 753.49 596.38 747.76 599.22 741.85 601.56 735.93 603.68 729.83 605.26 723.58 606.27 717.32 607 711.06 607.12 704.81 606.65 698.56 605.9 692.33 604.58 686.13 602.72 673.75 598.26 661.52 591.86 649.58 583.88 637.67 575.33 626.07 565.55 614.93 554.91 603.85 544.14 593.29 532.76 583.41 521.05 573.7 509.48 564.77 497.66 556.83 485.77 549.17 474.08 542.61 462.27 537.34 450.46 532.48 438.79 528.99 427.02 527.03 415.24 526.22 409.37 525.8 403.48 525.77 397.59 525.85 391.7 526.32 385.81 527.19 379.91 528.16 374.02 529.49 368.27 531.15 362.67 532.88 357.07 534.92 351.62 537.25 346.34 541.97 335.78 547.75 325.9 554.37 316.81 560.87 307.75 568.13 299.52 575.99 292.21 583.61 284.94 591.82 278.58 600.53 273.22 608.97 267.82 617.95 263.34 627.42 259.8 636.68 256.07 646.5 253.15 656.85 251.04 667.07 248.52 677.9 246.64 689.29 245.42 694.97 244.58 700.81 243.89 706.79 243.34 712.76 242.63 718.9 242.05 725.18 241.63" stroke-dasharray="10 10" transform="rotate(40.400000000000006, 711, 400)" opacity="0.67"></path><path d="M727.62 253.02C739.46 251.76 751.25 251.19 762.86 251.29 774.45 251 785.82 251.55 796.77 252.94 807.63 254.16 817.96 256.37 827.52 259.54 836.82 262.72 845.18 266.95 852.36 272.16 859.09 277.48 864.47 283.79 868.31 290.98 871.61 298.29 873.34 306.44 873.44 315.31 873.17 324.24 871.48 333.83 868.48 343.94 865.59 354.07 861.82 364.68 857.34 375.66 853.61 386.63 849.72 397.46 845.85 408.06 842.93 418.69 839.97 429.15 836.94 439.4 834.68 449.77 832.07 460.02 829.01 470.11 826.33 480.43 822.91 490.68 818.66 500.78 814.47 511.16 809.28 521.39 803.08 531.31 796.79 541.4 789.45 551.04 781.14 559.96 772.73 568.73 763.39 576.48 753.22 582.88 743 588.68 732.01 592.79 720.36 594.88 708.72 596 697.01 594.91 685.4 591.83 673.81 587.88 662.34 582.14 651.13 574.92 639.96 567.17 629.07 558.24 618.63 548.45 608.28 538.49 598.42 527.9 589.22 516.93 580.2 506.02 571.93 494.83 564.59 483.54 557.55 472.38 551.53 461.11 546.72 449.84 542.29 438.67 539.14 427.44 537.42 416.24 536.1 405.08 536.21 393.9 537.84 382.81 539.8 371.71 543.08 361.2 547.49 351.35 552.01 341.5 557.52 332.32 563.85 323.92 570.09 315.52 577.06 307.9 584.61 301.15 591.98 294.4 599.91 288.5 608.3 283.51 616.48 278.44 625.16 274.22 634.29 270.85 643.24 267.28 652.7 264.44 662.62 262.35 672.43 259.87 682.78 258 693.63 256.75 704.43 254.96 715.78 253.7 727.62 253.02" stroke-dasharray="1 2" transform="rotate(44.44, 711, 400)" opacity="0.97"></path><path d="M729.44 264.42C740.54 263.23 751.52 262.71 762.26 262.83 772.99 262.59 783.42 263.14 793.4 264.45 803.28 265.59 812.59 267.63 821.14 270.55 829.45 273.45 836.85 277.29 843.13 282.04 849.03 286.84 853.69 292.56 856.96 299.1 859.8 305.72 861.24 313.14 861.24 321.25 860.97 329.41 859.44 338.22 856.74 347.56 854.17 356.91 850.77 366.76 846.69 377.03 843.25 387.29 839.58 397.5 835.85 407.54 832.93 417.62 829.9 427.61 826.77 437.43 824.3 447.36 821.52 457.22 818.33 466.93 815.51 476.83 812.06 486.65 807.89 496.29 803.83 506.15 798.9 515.82 793.09 525.13 787.25 534.55 780.47 543.49 772.81 551.69 765.09 559.73 756.49 566.8 747.13 572.6 737.72 577.87 727.58 581.59 716.8 583.48 706.02 584.54 695.15 583.62 684.35 580.9 673.58 577.42 662.9 572.3 652.46 565.82 642.07 558.85 631.94 550.76 622.25 541.82 612.65 532.69 603.52 522.92 595.03 512.73 586.72 502.55 579.12 492.06 572.41 481.43 565.97 470.89 560.49 460.22 556.14 449.54 552.14 438.95 549.33 428.3 547.83 417.72 546.7 407.17 546.9 396.63 548.49 386.22 550.39 375.81 553.52 365.99 557.7 356.83 561.99 347.66 567.23 339.15 573.23 331.37 579.19 323.58 585.84 316.54 593.06 310.29 600.12 304.02 607.73 298.53 615.78 293.86 623.66 289.1 632.01 285.1 640.77 281.88 649.37 278.45 658.44 275.7 667.91 273.63 677.29 271.2 687.14 269.34 697.41 268.07 707.64 266.32 718.34 265.08 729.44 264.42" stroke-dasharray="6 5" transform="rotate(48.48, 711, 400)" opacity="0.92"></path><path d="M730.58 275.81C740.91 274.7 751.07 274.24 760.93 274.38 770.78 274.2 780.28 274.74 789.3 275.99 798.22 277.07 806.56 278.96 814.14 281.65 821.52 284.3 828.03 287.8 833.49 292.12 838.65 296.46 842.68 301.64 845.46 307.59 847.9 313.58 849.11 320.32 849.06 327.72 848.81 335.15 847.45 343.21 845.05 351.81 842.78 360.41 839.74 369.53 836.04 379.1 832.89 388.66 829.45 398.22 825.88 407.7 822.99 417.2 819.95 426.67 816.75 436.02 814.14 445.46 811.22 454.84 807.94 464.1 805.01 473.5 801.52 482.81 797.43 491.93 793.47 501.2 788.76 510.24 783.3 518.91 777.84 527.62 771.56 535.84 764.49 543.34 757.39 550.66 749.49 557.06 740.89 562.28 732.26 567.03 722.94 570.38 713.02 572.09 703.1 573.09 693.08 572.31 683.12 569.92 673.18 566.88 663.31 562.36 653.67 556.58 644.09 550.36 634.76 543.09 625.84 535 617.02 526.71 608.65 517.77 600.88 508.4 593.29 499 586.38 489.26 580.29 479.35 574.46 469.49 569.52 459.49 565.63 449.46 562.05 439.5 559.56 429.49 558.28 419.56 557.33 409.65 557.59 399.78 559.14 390.05 560.97 380.33 563.93 371.19 567.87 362.69 571.93 354.17 576.86 346.29 582.53 339.1 588.17 331.89 594.48 325.36 601.32 319.57 608.06 313.74 615.31 308.62 622.98 304.25 630.52 299.77 638.49 295.97 646.84 292.88 655.06 289.59 663.7 286.91 672.69 284.86 681.6 282.49 690.93 280.65 700.59 279.37 710.23 277.67 720.25 276.46 730.58 275.81" stroke-dasharray="9 3" transform="rotate(52.52, 711, 400)" opacity="0.73"></path><path d="M730.99 287.21C740.54 286.18 749.86 285.76 758.85 285.93 767.81 285.8 776.4 286.34 784.49 287.53 792.49 288.56 799.9 290.33 806.58 292.81 813.09 295.23 818.79 298.43 823.52 302.36 829.75 308.64 836.48 324.85 836.91 334.64 836.7 341.4 835.52 348.75 833.4 356.64 831.42 364.53 828.72 372.94 825.39 381.8 822.51 390.66 819.32 399.58 815.94 408.46 813.12 417.36 810.1 426.26 806.9 435.08 804.19 443.97 801.18 452.82 797.85 461.55 794.84 470.38 791.34 479.12 787.33 487.64 783.46 496.26 778.95 504.64 773.8 512.62 768.67 520.6 762.83 528.09 756.31 534.88 749.77 541.49 742.54 547.24 734.66 551.9 726.76 556.16 718.24 559.16 709.17 560.69 700.09 561.63 690.93 560.99 681.8 558.9 672.71 556.27 663.68 552.3 654.87 547.19 646.11 541.7 637.6 535.22 629.47 527.96 621.44 520.51 613.85 512.42 606.82 503.89 599.96 495.3 593.72 486.36 588.26 477.22 583.03 468.1 578.62 458.82 575.17 449.5 572 440.22 569.83 430.9 568.76 421.64 567.97 412.41 568.29 403.22 569.79 394.19 571.53 385.16 574.32 376.68 578.01 368.82 581.81 360.93 586.43 353.65 591.73 347 597.03 340.34 602.96 334.29 609.4 328.93 615.77 323.51 622.63 318.72 629.88 314.62 637.03 310.4 644.59 306.79 652.48 303.83 660.28 300.67 668.45 298.07 676.91 296.05 685.33 293.74 694.08 291.93 703.11 290.65 712.13 289 721.45 287.83 730.99 287.21" stroke-dasharray="8 8" transform="rotate(56.56, 711, 400)" opacity="0.51"></path><path d="M730.66 298.6C739.41 297.66 747.88 297.29 756 297.47 764.1 297.39 771.8 297.94 778.99 299.08 786.1 300.07 792.65 301.72 798.5 304.02 806.68 307.7 818.64 318.43 822.16 325.44 824 330.33 824.89 335.86 824.81 341.98 824.66 348.09 823.65 354.78 821.81 361.98 820.09 369.18 817.72 376.89 814.74 385.06 812.14 393.22 809.19 401.47 806.02 409.72 803.3 417.99 800.35 426.28 797.19 434.51 794.44 442.8 791.41 451.06 788.07 459.19 785.01 467.4 781.53 475.5 777.61 483.37 773.83 491.3 769.52 498.97 764.65 506.24 759.83 513.47 754.4 520.23 748.39 526.32 742.38 532.23 735.75 537.35 728.57 541.48 721.37 545.27 713.62 547.93 705.38 549.3 697.14 550.17 688.82 549.64 680.55 547.84 672.3 545.59 664.12 542.14 656.15 537.67 648.23 532.86 640.54 527.14 633.22 520.7 626 514.07 619.18 506.83 612.89 499.15 606.75 491.39 601.2 483.28 596.35 474.94 591.7 466.61 587.82 458.1 584.8 449.53 582.02 440.98 580.14 432.38 579.27 423.84 578.63 415.32 579 406.84 580.44 398.5 582.09 390.17 584.69 382.36 588.12 375.11 591.64 367.85 595.93 361.13 600.85 355.01 605.79 348.86 611.32 343.27 617.32 338.3 623.28 333.26 629.7 328.8 636.49 324.94 643.21 320.96 650.31 317.55 657.7 314.7 665.03 311.68 672.68 309.16 680.59 307.18 688.46 304.94 696.61 303.17 704.97 301.91 713.33 300.33 721.92 299.2 730.66 298.6" stroke-dasharray="4 10" transform="rotate(60.599999999999994, 711, 400)" opacity="0.29"></path><path d="M729.6 310C737.53 309.13 745.17 308.82 752.43 309.02 759.68 308.99 766.52 309.53 772.86 310.63 782 312.34 797.08 318.63 802.74 323.23 807.41 328.37 812.43 341.61 812.77 349.63 812.68 355.15 811.83 361.21 810.26 367.75 808.79 374.29 806.73 381.31 804.09 388.78 801.75 396.24 799.06 403.81 796.11 411.4 793.53 419 790.69 426.64 787.63 434.24 784.9 441.87 781.88 449.47 778.59 456.95 775.53 464.48 772.11 471.89 768.31 479.06 764.65 486.26 760.52 493.19 755.94 499.73 751.42 506.22 746.38 512.24 740.85 517.64 735.32 522.88 729.28 527.39 722.76 531.02 716.24 534.35 709.23 536.7 701.81 537.9 694.38 538.7 686.89 538.28 679.47 536.75 672.06 534.84 664.73 531.87 657.6 527.99 650.52 523.83 643.67 518.85 637.15 513.2 630.73 507.37 624.68 500.97 619.13 494.14 613.7 487.23 608.81 479.96 604.57 472.46 600.5 464.94 597.11 457.23 594.51 449.45 592.1 441.67 590.51 433.83 589.81 426.03 589.32 418.24 589.73 410.49 591.09 402.86 592.64 395.23 595.04 388.08 598.19 381.44 601.44 374.79 605.37 368.63 609.89 363.01 614.44 357.35 619.54 352.2 625.07 347.6 630.59 342.93 636.54 338.77 642.82 335.15 649.06 331.43 655.65 328.19 662.5 325.47 669.31 322.59 676.4 320.18 683.7 318.25 690.98 316.1 698.49 314.39 706.17 313.15 713.83 311.64 721.67 310.57 729.6 310" stroke-dasharray="8 5" transform="rotate(64.64, 711, 400)" opacity="0.42"></path><path d="M727.85 321.39C734.96 320.61 741.76 320.35 748.19 320.56 757.61 320.85 774.14 323.79 781.02 326.48 787.19 329.58 796.08 338.42 798.69 344.13 800.46 350.33 800.43 365.22 798.76 373.83 797.53 379.72 795.75 386.07 793.44 392.83 791.37 399.59 788.93 406.46 786.23 413.35 783.81 420.26 781.12 427.22 778.19 434.12 775.53 441.06 772.6 447.96 769.4 454.74 766.41 461.54 763.08 468.22 759.44 474.66 755.91 481.1 752 487.28 747.72 493.07 743.48 498.81 738.83 504.11 733.76 508.84 728.71 513.43 723.23 517.36 717.36 520.51 711.48 523.41 705.2 525.46 698.57 526.51 691.94 527.24 685.28 526.91 678.69 525.61 672.11 524.02 665.63 521.5 659.34 518.18 653.09 514.63 647.05 510.34 641.34 505.44 635.7 500.39 630.41 494.81 625.58 488.82 620.85 482.75 616.61 476.33 612.95 469.68 609.43 463 606.52 456.11 604.31 449.14 602.26 442.17 600.93 435.11 600.4 428.08 600.03 421.05 600.46 414.04 601.74 407.13 603.18 400.22 605.37 393.74 608.24 387.7 611.18 381.66 614.76 376.05 618.86 370.91 623 365.74 627.64 361.02 632.68 356.78 637.72 352.47 643.15 348.62 648.89 345.24 654.62 341.76 660.65 338.72 666.91 336.14 673.15 333.41 679.64 331.11 686.3 329.25 692.95 327.2 699.78 325.56 706.73 324.36 713.67 322.94 720.74 321.93 727.85 321.39" stroke-dasharray="10 6" transform="rotate(68.68, 711, 400)" opacity="0.66"></path><path d="M725.47 332.79C738.04 331.21 749.37 331.58 758.98 333.67 768.45 335.3 776.02 338.91 781.25 344.31 786.22 349.54 788.84 356.71 788.91 365.59 789.01 374.41 786.96 385 782.79 397.1 779.36 409.19 774.56 421.73 768.89 434.08 764.02 446.49 758 458.74 751.01 470.11 744.42 481.43 736.44 491.66 727.23 499.92 718.08 507.7 707.51 513.06 695.79 515.11 684.08 516.16 672.41 513.63 661.43 508.22 650.59 502.07 640.65 493.43 632.27 483.17 624.25 472.62 618.02 460.81 614.21 448.52 610.91 436.2 610.15 423.54 612.39 411.19 615.12 398.83 620.47 387.89 627.76 378.61 635.2 369.22 644.4 361.33 654.73 355.14 665.04 348.62 676.45 343.56 688.41 340.17 700.35 336.17 712.9 333.59 725.47 332.79" stroke-dasharray="9 9" transform="rotate(72.72, 711, 400)" opacity="0.26"></path><path d="M722.56 344.18C733.48 342.82 743.23 343.22 751.43 345.15 759.53 346.71 765.96 350 770.39 354.83 774.66 359.5 776.96 365.86 777.11 373.7 777.32 381.47 775.67 390.8 772.14 401.46 769.16 412.11 764.86 423.14 759.69 433.98 755.12 444.86 749.49 455.54 743.01 465.38 736.86 475.14 729.57 483.89 721.3 490.88 713.11 497.48 703.77 502 693.58 503.72 683.39 504.68 673.34 502.63 663.97 498.13 654.71 493.06 646.28 485.83 639.26 477.15 632.5 468.22 627.31 458.1 624.21 447.48 621.5 436.82 620.98 425.77 623.04 414.9 625.48 404.03 630.2 394.33 636.6 386.03 643.15 377.63 651.26 370.5 660.36 364.82 669.48 358.88 679.57 354.2 690.1 351 700.63 347.33 711.63 344.94 722.56 344.18" stroke-dasharray="3 7" transform="rotate(76.76, 711, 400)" opacity="0.35"></path><path d="M719.21 355.58C728.51 354.42 736.74 354.83 743.61 356.59 753.12 359.53 764.18 372.18 765.4 381.76 765.71 388.51 764.42 396.57 761.49 405.77 758.96 414.96 755.2 424.45 750.6 433.74 746.43 443.04 741.3 452.11 735.45 460.41 729.84 468.63 723.3 475.93 716.03 481.71 708.81 487.18 700.72 490.91 692.02 492.32 683.32 493.18 674.84 491.55 667.02 487.9 659.27 483.83 652.3 477.92 646.54 470.74 640.98 463.37 636.77 454.92 634.33 445.95 632.17 436.95 631.84 427.52 633.69 418.16 635.83 408.8 639.9 400.36 645.39 393.06 651.02 385.7 658 379.36 665.82 374.25 673.69 368.93 682.38 364.69 691.43 361.74 700.5 358.43 709.92 356.28 719.21 355.58" stroke-dasharray="5 1" transform="rotate(80.80000000000001, 711, 400)" opacity="0.53"></path><path d="M715.57 366.97C726.62 366.23 743.45 370.62 748.75 375.6 752.66 381.54 753.69 398.8 750.84 409.91 748.75 417.61 745.56 425.52 741.6 433.23 737.93 440.93 733.42 448.4 728.3 455.18 723.34 461.87 717.65 467.78 711.41 472.41 705.22 476.82 698.39 479.81 691.16 480.93 683.92 481.67 676.97 480.42 670.63 477.54 664.33 474.37 658.73 469.69 654.17 463.94 649.73 458.04 646.42 451.2 644.56 443.87 642.89 436.49 642.73 428.7 644.34 420.87 646.16 413.03 649.56 405.9 654.14 399.65 658.83 393.36 664.64 387.88 671.16 383.4 677.73 378.77 684.98 375.03 692.51 372.39 700.07 369.49 707.89 367.6 715.57 366.97" stroke-dasharray="8 1" transform="rotate(84.84, 711, 400)" opacity="0.09"></path><path d="M711.75 378.37C723.92 376.67 733.12 379.54 738.08 385.76 743.03 391.64 744 401.34 740.19 413.74 737.06 426.14 730.21 439.01 721.53 449.64 713.29 460.02 702.61 467.6 691.04 469.53 679.46 470.52 669.15 465.46 662.13 456.73 655.43 447.62 652.45 435.51 654.99 422.94 658.08 410.37 666.07 399.67 676.41 392.22 686.92 384.38 699.57 379.23 711.75 378.37" stroke-dasharray="8 7" transform="rotate(88.88, 711, 400)" opacity="0.67"></path><path d="M707.9 389.76C720.37 389.71 731.83 404.08 729.54 417.16 727.18 426.51 721.86 436.03 715.12 443.76 708.6 451.33 700.35 456.79 691.65 458.14 682.96 458.96 675.44 455.4 670.46 449.12 665.65 442.61 663.62 433.76 665.64 424.32 667.98 414.87 673.94 406.61 681.63 400.71 689.44 394.59 698.85 390.51 707.9 389.76" stroke-dasharray="1 6" transform="rotate(92.92, 711, 400)" opacity="0.27"></path><path d="M704.17 401.16C716.12 399.4 722.52 407.53 718.89 420.06 715.91 432.57 704.62 444.87 692.99 446.74 681.35 447.7 673.6 437.56 676.29 424.95 679.56 412.34 692.2 402.06 704.17 401.16" stroke-dasharray="8 7" transform="rotate(96.96, 711, 400)" opacity="0.41"></path></g></svg>