<svg xmlns="http://www.w3.org/2000/svg" version="1.1" xmlns:xlink="http://www.w3.org/1999/xlink" xmlns:svgjs="http://svgjs.dev/svgjs" width="1440" height="560" preserveAspectRatio="none" viewBox="0 0 1440 560"><g mask="url(&quot;#SvgjsMask1000&quot;)" fill="none"><rect width="1440" height="560" x="0" y="0" fill="#0e2a47"></rect><path d="M-81.71 503.99L-81.71 503.99" stroke="#132e65" stroke-width="1.5"></path><path d="M-81.71 503.99L83.84 495.39" stroke="#132e65" stroke-width="1.5"></path><path d="M-81.71 503.99L-93.59 675.02" stroke="#132e65" stroke-width="1.5"></path><path d="M-93.59 675.02L-93.59 675.02" stroke="#132e65" stroke-width="1.5"></path><path d="M-93.59 675.02L60.09 654.27" stroke="#132e65" stroke-width="1.5"></path><path d="M-93.59 675.02L83.84 495.39" stroke="#132e65" stroke-width="1.5"></path><path d="M-93.59 675.02L196.84 553.66" stroke="#132e65" stroke-width="1.5"></path><path d="M-93.59 675.02L229.62 641.44" stroke="#132e65" stroke-width="1.5"></path><path d="M96.65 409.72L96.65 409.72" stroke="#132e65" stroke-width="1.5"></path><path d="M96.65 409.72L83.84 495.39" stroke="#132e65" stroke-width="1.5"></path><path d="M83.84 495.39L83.84 495.39" stroke="#132e65" stroke-width="1.5"></path><path d="M83.84 495.39L196.84 553.66" stroke="#132e65" stroke-width="1.5"></path><path d="M83.84 495.39L60.09 654.27" stroke="#132e65" stroke-width="1.5"></path><path d="M60.09 654.27L60.09 654.27" stroke="#132e65" stroke-width="1.5"></path><path d="M60.09 654.27L196.84 553.66" stroke="#132e65" stroke-width="1.5"></path><path d="M262.31 384.21L262.31 384.21" stroke="#132e65" stroke-width="1.5"></path><path d="M262.31 384.21L403.88 412.1" stroke="#132e65" stroke-width="1.5"></path><path d="M262.31 384.21L345.3 502.3" stroke="#132e65" stroke-width="1.5"></path><path d="M262.31 384.21L96.65 409.72" stroke="#132e65" stroke-width="1.5"></path><path d="M196.84 553.66L196.84 553.66" stroke="#132e65" stroke-width="1.5"></path><path d="M196.84 553.66L229.62 641.44" stroke="#132e65" stroke-width="1.5"></path><path d="M196.84 553.66L345.3 502.3" stroke="#132e65" stroke-width="1.5"></path><path d="M196.84 553.66L96.65 409.72" stroke="#132e65" stroke-width="1.5"></path><path d="M196.84 553.66L262.31 384.21" stroke="#132e65" stroke-width="1.5"></path><path d="M229.62 641.44L229.62 641.44" stroke="#132e65" stroke-width="1.5"></path><path d="M229.62 641.44L354.09 699.97" stroke="#132e65" stroke-width="1.5"></path><path d="M229.62 641.44L60.09 654.27" stroke="#132e65" stroke-width="1.5"></path><path d="M229.62 641.44L345.3 502.3" stroke="#132e65" stroke-width="1.5"></path><path d="M403.88 412.1L403.88 412.1" stroke="#132e65" stroke-width="1.5"></path><path d="M403.88 412.1L505.35 392.45" stroke="#132e65" stroke-width="1.5"></path><path d="M345.3 502.3L345.3 502.3" stroke="#132e65" stroke-width="1.5"></path><path d="M345.3 502.3L403.88 412.1" stroke="#132e65" stroke-width="1.5"></path><path d="M354.09 699.97L354.09 699.97" stroke="#132e65" stroke-width="1.5"></path><path d="M354.09 699.97L345.3 502.3" stroke="#132e65" stroke-width="1.5"></path><path d="M505.35 392.45L505.35 392.45" stroke="#132e65" stroke-width="1.5"></path><path d="M505.35 392.45L543.96 495.37" stroke="#132e65" stroke-width="1.5"></path><path d="M543.96 495.37L543.96 495.37" stroke="#132e65" stroke-width="1.5"></path><path d="M543.96 495.37L649.18 558.09" stroke="#132e65" stroke-width="1.5"></path><path d="M543.96 495.37L562.35 652.01" stroke="#132e65" stroke-width="1.5"></path><path d="M543.96 495.37L403.88 412.1" stroke="#132e65" stroke-width="1.5"></path><path d="M562.35 652.01L562.35 652.01" stroke="#132e65" stroke-width="1.5"></path><path d="M562.35 652.01L676.82 690.42" stroke="#132e65" stroke-width="1.5"></path><path d="M562.35 652.01L649.18 558.09" stroke="#132e65" stroke-width="1.5"></path><path d="M562.35 652.01L354.09 699.97" stroke="#132e65" stroke-width="1.5"></path><path d="M649.18 558.09L649.18 558.09" stroke="#132e65" stroke-width="1.5"></path><path d="M649.18 558.09L676.82 690.42" stroke="#132e65" stroke-width="1.5"></path><path d="M676.82 690.42L676.82 690.42" stroke="#132e65" stroke-width="1.5"></path><path d="M676.82 690.42L829.53 646.14" stroke="#132e65" stroke-width="1.5"></path><path d="M676.82 690.42L543.96 495.37" stroke="#132e65" stroke-width="1.5"></path><path d="M676.82 690.42L859.37 524.26" stroke="#132e65" stroke-width="1.5"></path><path d="M802.58 210.64L802.58 210.64" stroke="#132e65" stroke-width="1.5"></path><path d="M802.58 210.64L853.34 391.63" stroke="#132e65" stroke-width="1.5"></path><path d="M802.58 210.64L975.9 107.11" stroke="#132e65" stroke-width="1.5"></path><path d="M853.34 391.63L853.34 391.63" stroke="#132e65" stroke-width="1.5"></path><path d="M853.34 391.63L859.37 524.26" stroke="#132e65" stroke-width="1.5"></path><path d="M853.34 391.63L996.76 344.98" stroke="#132e65" stroke-width="1.5"></path><path d="M853.34 391.63L980.27 557.9" stroke="#132e65" stroke-width="1.5"></path><path d="M853.34 391.63L1088.51 384.57" stroke="#132e65" stroke-width="1.5"></path><path d="M853.34 391.63L1011.15 216.26" stroke="#132e65" stroke-width="1.5"></path><path d="M859.37 524.26L859.37 524.26" stroke="#132e65" stroke-width="1.5"></path><path d="M859.37 524.26L829.53 646.14" stroke="#132e65" stroke-width="1.5"></path><path d="M859.37 524.26L980.27 557.9" stroke="#132e65" stroke-width="1.5"></path><path d="M859.37 524.26L649.18 558.09" stroke="#132e65" stroke-width="1.5"></path><path d="M829.53 646.14L829.53 646.14" stroke="#132e65" stroke-width="1.5"></path><path d="M829.53 646.14L964.53 712.22" stroke="#132e65" stroke-width="1.5"></path><path d="M989.69 -48.73L989.69 -48.73" stroke="#132e65" stroke-width="1.5"></path><path d="M989.69 -48.73L975.9 107.11" stroke="#132e65" stroke-width="1.5"></path><path d="M989.69 -48.73L1120.12 78.58" stroke="#132e65" stroke-width="1.5"></path><path d="M989.69 -48.73L1011.15 216.26" stroke="#132e65" stroke-width="1.5"></path><path d="M989.69 -48.73L1120.13 212.35" stroke="#132e65" stroke-width="1.5"></path><path d="M989.69 -48.73L1284.8 -63.48" stroke="#132e65" stroke-width="1.5"></path><path d="M975.9 107.11L975.9 107.11" stroke="#132e65" stroke-width="1.5"></path><path d="M975.9 107.11L1011.15 216.26" stroke="#132e65" stroke-width="1.5"></path><path d="M975.9 107.11L1120.12 78.58" stroke="#132e65" stroke-width="1.5"></path><path d="M975.9 107.11L1120.13 212.35" stroke="#132e65" stroke-width="1.5"></path><path d="M1011.15 216.26L1011.15 216.26" stroke="#132e65" stroke-width="1.5"></path><path d="M1011.15 216.26L1120.13 212.35" stroke="#132e65" stroke-width="1.5"></path><path d="M1011.15 216.26L996.76 344.98" stroke="#132e65" stroke-width="1.5"></path><path d="M996.76 344.98L996.76 344.98" stroke="#132e65" stroke-width="1.5"></path><path d="M996.76 344.98L1088.51 384.57" stroke="#132e65" stroke-width="1.5"></path><path d="M996.76 344.98L1120.13 212.35" stroke="#132e65" stroke-width="1.5"></path><path d="M980.27 557.9L980.27 557.9" stroke="#132e65" stroke-width="1.5"></path><path d="M980.27 557.9L964.53 712.22" stroke="#132e65" stroke-width="1.5"></path><path d="M980.27 557.9L829.53 646.14" stroke="#132e65" stroke-width="1.5"></path><path d="M980.27 557.9L1157.92 513.28" stroke="#132e65" stroke-width="1.5"></path><path d="M980.27 557.9L1160.84 652.13" stroke="#132e65" stroke-width="1.5"></path><path d="M980.27 557.9L1088.51 384.57" stroke="#132e65" stroke-width="1.5"></path><path d="M964.53 712.22L964.53 712.22" stroke="#132e65" stroke-width="1.5"></path><path d="M964.53 712.22L1160.84 652.13" stroke="#132e65" stroke-width="1.5"></path><path d="M1120.12 78.58L1120.12 78.58" stroke="#132e65" stroke-width="1.5"></path><path d="M1120.12 78.58L1120.13 212.35" stroke="#132e65" stroke-width="1.5"></path><path d="M1120.12 78.58L1011.15 216.26" stroke="#132e65" stroke-width="1.5"></path><path d="M1120.13 212.35L1120.13 212.35" stroke="#132e65" stroke-width="1.5"></path><path d="M1088.51 384.57L1088.51 384.57" stroke="#132e65" stroke-width="1.5"></path><path d="M1088.51 384.57L1157.92 513.28" stroke="#132e65" stroke-width="1.5"></path><path d="M1157.92 513.28L1157.92 513.28" stroke="#132e65" stroke-width="1.5"></path><path d="M1157.92 513.28L1244.9 556.35" stroke="#132e65" stroke-width="1.5"></path><path d="M1157.92 513.28L1160.84 652.13" stroke="#132e65" stroke-width="1.5"></path><path d="M1160.84 652.13L1160.84 652.13" stroke="#132e65" stroke-width="1.5"></path><path d="M1160.84 652.13L1249.52 652.8" stroke="#132e65" stroke-width="1.5"></path><path d="M1160.84 652.13L1244.9 556.35" stroke="#132e65" stroke-width="1.5"></path><path d="M1160.84 652.13L1434.84 668.59" stroke="#132e65" stroke-width="1.5"></path><path d="M1284.8 -63.48L1284.8 -63.48" stroke="#132e65" stroke-width="1.5"></path><path d="M1284.8 -63.48L1295.16 63.22" stroke="#132e65" stroke-width="1.5"></path><path d="M1284.8 -63.48L1415.52 -66.94" stroke="#132e65" stroke-width="1.5"></path><path d="M1295.16 63.22L1295.16 63.22" stroke="#132e65" stroke-width="1.5"></path><path d="M1295.16 63.22L1396.05 47.25" stroke="#132e65" stroke-width="1.5"></path><path d="M1295.16 63.22L1276.23 191.11" stroke="#132e65" stroke-width="1.5"></path><path d="M1295.16 63.22L1120.12 78.58" stroke="#132e65" stroke-width="1.5"></path><path d="M1295.16 63.22L1415.52 -66.94" stroke="#132e65" stroke-width="1.5"></path><path d="M1295.16 63.22L1451.31 211.72" stroke="#132e65" stroke-width="1.5"></path><path d="M1276.23 191.11L1276.23 191.11" stroke="#132e65" stroke-width="1.5"></path><path d="M1276.23 191.11L1120.13 212.35" stroke="#132e65" stroke-width="1.5"></path><path d="M1276.23 191.11L1304.92 346.24" stroke="#132e65" stroke-width="1.5"></path><path d="M1304.92 346.24L1304.92 346.24" stroke="#132e65" stroke-width="1.5"></path><path d="M1304.92 346.24L1401.42 353.06" stroke="#132e65" stroke-width="1.5"></path><path d="M1304.92 346.24L1438.36 492.41" stroke="#132e65" stroke-width="1.5"></path><path d="M1304.92 346.24L1451.31 211.72" stroke="#132e65" stroke-width="1.5"></path><path d="M1304.92 346.24L1244.9 556.35" stroke="#132e65" stroke-width="1.5"></path><path d="M1304.92 346.24L1088.51 384.57" stroke="#132e65" stroke-width="1.5"></path><path d="M1244.9 556.35L1244.9 556.35" stroke="#132e65" stroke-width="1.5"></path><path d="M1244.9 556.35L1249.52 652.8" stroke="#132e65" stroke-width="1.5"></path><path d="M1249.52 652.8L1249.52 652.8" stroke="#132e65" stroke-width="1.5"></path><path d="M1249.52 652.8L1157.92 513.28" stroke="#132e65" stroke-width="1.5"></path><path d="M1249.52 652.8L1434.84 668.59" stroke="#132e65" stroke-width="1.5"></path><path d="M1249.52 652.8L1438.36 492.41" stroke="#132e65" stroke-width="1.5"></path><path d="M1415.52 -66.94L1415.52 -66.94" stroke="#132e65" stroke-width="1.5"></path><path d="M1415.52 -66.94L1396.05 47.25" stroke="#132e65" stroke-width="1.5"></path><path d="M1415.52 -66.94L1560.39 -91.32" stroke="#132e65" stroke-width="1.5"></path><path d="M1415.52 -66.94L1451.31 211.72" stroke="#132e65" stroke-width="1.5"></path><path d="M1396.05 47.25L1396.05 47.25" stroke="#132e65" stroke-width="1.5"></path><path d="M1451.31 211.72L1451.31 211.72" stroke="#132e65" stroke-width="1.5"></path><path d="M1451.31 211.72L1542.11 213.98" stroke="#132e65" stroke-width="1.5"></path><path d="M1451.31 211.72L1401.42 353.06" stroke="#132e65" stroke-width="1.5"></path><path d="M1401.42 353.06L1401.42 353.06" stroke="#132e65" stroke-width="1.5"></path><path d="M1401.42 353.06L1438.36 492.41" stroke="#132e65" stroke-width="1.5"></path><path d="M1401.42 353.06L1596.63 354.14" stroke="#132e65" stroke-width="1.5"></path><path d="M1438.36 492.41L1438.36 492.41" stroke="#132e65" stroke-width="1.5"></path><path d="M1438.36 492.41L1545.96 526.44" stroke="#132e65" stroke-width="1.5"></path><path d="M1438.36 492.41L1434.84 668.59" stroke="#132e65" stroke-width="1.5"></path><path d="M1438.36 492.41L1244.9 556.35" stroke="#132e65" stroke-width="1.5"></path><path d="M1438.36 492.41L1596.63 354.14" stroke="#132e65" stroke-width="1.5"></path><path d="M1434.84 668.59L1434.84 668.59" stroke="#132e65" stroke-width="1.5"></path><path d="M1434.84 668.59L1545.96 526.44" stroke="#132e65" stroke-width="1.5"></path><path d="M1434.84 668.59L1244.9 556.35" stroke="#132e65" stroke-width="1.5"></path><path d="M1434.84 668.59L1401.42 353.06" stroke="#132e65" stroke-width="1.5"></path><path d="M1560.39 -91.32L1560.39 -91.32" stroke="#132e65" stroke-width="1.5"></path><path d="M1560.39 -91.32L1396.05 47.25" stroke="#132e65" stroke-width="1.5"></path><path d="M1560.39 -91.32L1284.8 -63.48" stroke="#132e65" stroke-width="1.5"></path><path d="M1560.39 -91.32L1542.11 213.98" stroke="#132e65" stroke-width="1.5"></path><path d="M1560.39 -91.32L1295.16 63.22" stroke="#132e65" stroke-width="1.5"></path><path d="M1542.11 213.98L1542.11 213.98" stroke="#132e65" stroke-width="1.5"></path><path d="M1542.11 213.98L1596.63 354.14" stroke="#132e65" stroke-width="1.5"></path><path d="M1542.11 213.98L1401.42 353.06" stroke="#132e65" stroke-width="1.5"></path><path d="M1542.11 213.98L1396.05 47.25" stroke="#132e65" stroke-width="1.5"></path><path d="M1542.11 213.98L1276.23 191.11" stroke="#132e65" stroke-width="1.5"></path><path d="M1542.11 213.98L1304.92 346.24" stroke="#132e65" stroke-width="1.5"></path><path d="M1596.63 354.14L1596.63 354.14" stroke="#132e65" stroke-width="1.5"></path><path d="M1596.63 354.14L1545.96 526.44" stroke="#132e65" stroke-width="1.5"></path><path d="M1596.63 354.14L1451.31 211.72" stroke="#132e65" stroke-width="1.5"></path><path d="M1545.96 526.44L1545.96 526.44" stroke="#132e65" stroke-width="1.5"></path><path d="M1545.96 526.44L1401.42 353.06" stroke="#132e65" stroke-width="1.5"></path><circle r="5" cx="-81.71" cy="503.99" fill="#132e65"></circle><circle r="5" cx="-93.59" cy="675.02" fill="#132e65"></circle><circle r="5" cx="96.65" cy="409.72" fill="#132e65"></circle><circle r="5" cx="83.84" cy="495.39" fill="#132e65"></circle><circle r="5" cx="60.09" cy="654.27" fill="#132e65"></circle><circle r="5" cx="262.31" cy="384.21" fill="#132e65"></circle><circle r="5" cx="196.84" cy="553.66" fill="#132e65"></circle><circle r="5" cx="229.62" cy="641.44" fill="#132e65"></circle><circle r="5" cx="403.88" cy="412.1" fill="#132e65"></circle><circle r="5" cx="345.3" cy="502.3" fill="#132e65"></circle><circle r="5" cx="354.09" cy="699.97" fill="#132e65"></circle><circle r="5" cx="505.35" cy="392.45" fill="#132e65"></circle><circle r="5" cx="543.96" cy="495.37" fill="#132e65"></circle><circle r="5" cx="562.35" cy="652.01" fill="#132e65"></circle><circle r="5" cx="649.18" cy="558.09" fill="#132e65"></circle><circle r="5" cx="676.82" cy="690.42" fill="#132e65"></circle><circle r="5" cx="802.58" cy="210.64" fill="#132e65"></circle><circle r="5" cx="853.34" cy="391.63" fill="#132e65"></circle><circle r="5" cx="859.37" cy="524.26" fill="#132e65"></circle><circle r="5" cx="829.53" cy="646.14" fill="#132e65"></circle><circle r="5" cx="989.69" cy="-48.73" fill="#132e65"></circle><circle r="5" cx="975.9" cy="107.11" fill="#132e65"></circle><circle r="5" cx="1011.15" cy="216.26" fill="#132e65"></circle><circle r="5" cx="996.76" cy="344.98" fill="#132e65"></circle><circle r="5" cx="980.27" cy="557.9" fill="#132e65"></circle><circle r="5" cx="964.53" cy="712.22" fill="#132e65"></circle><circle r="5" cx="1120.12" cy="78.58" fill="#132e65"></circle><circle r="5" cx="1120.13" cy="212.35" fill="#132e65"></circle><circle r="5" cx="1088.51" cy="384.57" fill="#132e65"></circle><circle r="5" cx="1157.92" cy="513.28" fill="#132e65"></circle><circle r="5" cx="1160.84" cy="652.13" fill="#132e65"></circle><circle r="5" cx="1284.8" cy="-63.48" fill="#132e65"></circle><circle r="5" cx="1295.16" cy="63.22" fill="#132e65"></circle><circle r="5" cx="1276.23" cy="191.11" fill="#132e65"></circle><circle r="5" cx="1304.92" cy="346.24" fill="#132e65"></circle><circle r="5" cx="1244.9" cy="556.35" fill="#132e65"></circle><circle r="5" cx="1249.52" cy="652.8" fill="#132e65"></circle><circle r="5" cx="1415.52" cy="-66.94" fill="#132e65"></circle><circle r="5" cx="1396.05" cy="47.25" fill="#132e65"></circle><circle r="5" cx="1451.31" cy="211.72" fill="#132e65"></circle><circle r="5" cx="1401.42" cy="353.06" fill="#132e65"></circle><circle r="5" cx="1438.36" cy="492.41" fill="#132e65"></circle><circle r="5" cx="1434.84" cy="668.59" fill="#132e65"></circle><circle r="5" cx="1560.39" cy="-91.32" fill="#132e65"></circle><circle r="5" cx="1542.11" cy="213.98" fill="#132e65"></circle><circle r="5" cx="1596.63" cy="354.14" fill="#132e65"></circle><circle r="5" cx="1545.96" cy="526.44" fill="#132e65"></circle><path d="M-96.19 689.32L-96.19 689.32" stroke="hsl(228.5, 77.2%, 51.5%)" stroke-width="1.5"></path><path d="M-96.19 689.32L-70.89 552.14" stroke="hsl(228.5, 77.2%, 51.5%)" stroke-width="1.5"></path><path d="M-96.19 689.32L46.06 643.75" stroke="hsl(228.5, 77.2%, 51.5%)" stroke-width="1.5"></path><path d="M-96.19 689.32L103.12 488.36" stroke="hsl(228.5, 77.2%, 51.5%)" stroke-width="1.5"></path><path d="M-96.19 689.32L223.56 545.76" stroke="hsl(228.5, 77.2%, 51.5%)" stroke-width="1.5"></path><path d="M1152.92 211.73L1152.92 211.73" stroke="hsl(228.5, 77.2%, 51.5%)" stroke-width="1.5"></path><path d="M1152.92 211.73L1252.93 229.05" stroke="hsl(228.5, 77.2%, 51.5%)" stroke-width="1.5"></path><path d="M1152.92 211.73L1301.34 61.35" stroke="hsl(228.5, 77.2%, 51.5%)" stroke-width="1.5"></path><path d="M1152.92 211.73L1011.26 386.04" stroke="hsl(228.5, 77.2%, 51.5%)" stroke-width="1.5"></path><path d="M1152.92 211.73L1277.98 403.89" stroke="hsl(228.5, 77.2%, 51.5%)" stroke-width="1.5"></path><path d="M1152.92 211.73L1400.7 258.99" stroke="hsl(228.5, 77.2%, 51.5%)" stroke-width="1.5"></path><path d="M1092.73 639.34L1092.73 639.34" stroke="hsl(228.5, 77.2%, 51.5%)" stroke-width="1.5"></path><path d="M1092.73 639.34L1141.07 534.48" stroke="hsl(228.5, 77.2%, 51.5%)" stroke-width="1.5"></path><path d="M1092.73 639.34L965.94 640.61" stroke="hsl(228.5, 77.2%, 51.5%)" stroke-width="1.5"></path><path d="M1092.73 639.34L963.2 506.18" stroke="hsl(228.5, 77.2%, 51.5%)" stroke-width="1.5"></path><path d="M1092.73 639.34L1272.03 694.35" stroke="hsl(228.5, 77.2%, 51.5%)" stroke-width="1.5"></path><path d="M1301.34 61.35L1301.34 61.35" stroke="hsl(228.5, 77.2%, 51.5%)" stroke-width="1.5"></path><path d="M1301.34 61.35L1407.04 57.42" stroke="hsl(228.5, 77.2%, 51.5%)" stroke-width="1.5"></path><path d="M1301.34 61.35L1299.14 -98.23" stroke="hsl(228.5, 77.2%, 51.5%)" stroke-width="1.5"></path><path d="M1301.34 61.35L1252.93 229.05" stroke="hsl(228.5, 77.2%, 51.5%)" stroke-width="1.5"></path><path d="M1301.34 61.35L1440.25 -97.59" stroke="hsl(228.5, 77.2%, 51.5%)" stroke-width="1.5"></path><path d="M1407.04 57.42L1407.04 57.42" stroke="hsl(228.5, 77.2%, 51.5%)" stroke-width="1.5"></path><path d="M1407.04 57.42L1440.25 -97.59" stroke="hsl(228.5, 77.2%, 51.5%)" stroke-width="1.5"></path><path d="M1407.04 57.42L1564.68 94.41" stroke="hsl(228.5, 77.2%, 51.5%)" stroke-width="1.5"></path><path d="M1388.73 339.8L1388.73 339.8" stroke="hsl(228.5, 77.2%, 51.5%)" stroke-width="1.5"></path><path d="M1388.73 339.8L1400.7 258.99" stroke="hsl(228.5, 77.2%, 51.5%)" stroke-width="1.5"></path><path d="M1388.73 339.8L1277.98 403.89" stroke="hsl(228.5, 77.2%, 51.5%)" stroke-width="1.5"></path><path d="M1388.73 339.8L1434.23 495.44" stroke="hsl(228.5, 77.2%, 51.5%)" stroke-width="1.5"></path><path d="M1388.73 339.8L1252.93 229.05" stroke="hsl(228.5, 77.2%, 51.5%)" stroke-width="1.5"></path><path d="M1434.23 495.44L1434.23 495.44" stroke="hsl(228.5, 77.2%, 51.5%)" stroke-width="1.5"></path><path d="M1434.23 495.44L1575.01 534.99" stroke="hsl(228.5, 77.2%, 51.5%)" stroke-width="1.5"></path><path d="M1564.68 94.41L1564.68 94.41" stroke="hsl(228.5, 77.2%, 51.5%)" stroke-width="1.5"></path><path d="M1564.68 94.41L1577.18 244.11" stroke="hsl(228.5, 77.2%, 51.5%)" stroke-width="1.5"></path><path d="M1606.91 398.2L1606.91 398.2" stroke="hsl(228.5, 77.2%, 51.5%)" stroke-width="1.5"></path><path d="M1606.91 398.2L1575.01 534.99" stroke="hsl(228.5, 77.2%, 51.5%)" stroke-width="1.5"></path><path d="M1606.91 398.2L1577.18 244.11" stroke="hsl(228.5, 77.2%, 51.5%)" stroke-width="1.5"></path><path d="M1606.91 398.2L1434.23 495.44" stroke="hsl(228.5, 77.2%, 51.5%)" stroke-width="1.5"></path><path d="M1606.91 398.2L1388.73 339.8" stroke="hsl(228.5, 77.2%, 51.5%)" stroke-width="1.5"></path><path d="M1606.91 398.2L1400.7 258.99" stroke="hsl(228.5, 77.2%, 51.5%)" stroke-width="1.5"></path><path d="M-70.89 552.14L-70.89 552.14" stroke="hsl(228.5, 77.2%, 51.5%)" stroke-width="1.5"></path><path d="M-70.89 552.14L46.06 643.75" stroke="hsl(228.5, 77.2%, 51.5%)" stroke-width="1.5"></path><path d="M-70.89 552.14L103.12 488.36" stroke="hsl(228.5, 77.2%, 51.5%)" stroke-width="1.5"></path><path d="M-70.89 552.14L223.56 545.76" stroke="hsl(228.5, 77.2%, 51.5%)" stroke-width="1.5"></path><path d="M-70.89 552.14L360.24 528.27" stroke="hsl(228.5, 77.2%, 51.5%)" stroke-width="1.5"></path><path d="M-70.89 552.14L408.74 691.95" stroke="hsl(228.5, 77.2%, 51.5%)" stroke-width="1.5"></path><path d="M103.12 488.36L103.12 488.36" stroke="hsl(228.5, 77.2%, 51.5%)" stroke-width="1.5"></path><path d="M103.12 488.36L223.56 545.76" stroke="hsl(228.5, 77.2%, 51.5%)" stroke-width="1.5"></path><path d="M103.12 488.36L46.06 643.75" stroke="hsl(228.5, 77.2%, 51.5%)" stroke-width="1.5"></path><path d="M103.12 488.36L360.24 528.27" stroke="hsl(228.5, 77.2%, 51.5%)" stroke-width="1.5"></path><path d="M103.12 488.36L408.74 691.95" stroke="hsl(228.5, 77.2%, 51.5%)" stroke-width="1.5"></path><path d="M46.06 643.75L46.06 643.75" stroke="hsl(228.5, 77.2%, 51.5%)" stroke-width="1.5"></path><path d="M46.06 643.75L223.56 545.76" stroke="hsl(228.5, 77.2%, 51.5%)" stroke-width="1.5"></path><path d="M46.06 643.75L360.24 528.27" stroke="hsl(228.5, 77.2%, 51.5%)" stroke-width="1.5"></path><path d="M46.06 643.75L408.74 691.95" stroke="hsl(228.5, 77.2%, 51.5%)" stroke-width="1.5"></path><path d="M223.56 545.76L223.56 545.76" stroke="hsl(228.5, 77.2%, 51.5%)" stroke-width="1.5"></path><path d="M223.56 545.76L360.24 528.27" stroke="hsl(228.5, 77.2%, 51.5%)" stroke-width="1.5"></path><path d="M223.56 545.76L408.74 691.95" stroke="hsl(228.5, 77.2%, 51.5%)" stroke-width="1.5"></path><path d="M360.24 528.27L360.24 528.27" stroke="hsl(228.5, 77.2%, 51.5%)" stroke-width="1.5"></path><path d="M360.24 528.27L408.74 691.95" stroke="hsl(228.5, 77.2%, 51.5%)" stroke-width="1.5"></path><path d="M360.24 528.27L541.15 512.52" stroke="hsl(228.5, 77.2%, 51.5%)" stroke-width="1.5"></path><path d="M408.74 691.95L408.74 691.95" stroke="hsl(228.5, 77.2%, 51.5%)" stroke-width="1.5"></path><path d="M408.74 691.95L520.8 646.69" stroke="hsl(228.5, 77.2%, 51.5%)" stroke-width="1.5"></path><path d="M408.74 691.95L541.15 512.52" stroke="hsl(228.5, 77.2%, 51.5%)" stroke-width="1.5"></path><path d="M408.74 691.95L658.75 680.48" stroke="hsl(228.5, 77.2%, 51.5%)" stroke-width="1.5"></path><path d="M408.74 691.95L657.18 553.55" stroke="hsl(228.5, 77.2%, 51.5%)" stroke-width="1.5"></path><path d="M541.15 512.52L541.15 512.52" stroke="hsl(228.5, 77.2%, 51.5%)" stroke-width="1.5"></path><path d="M541.15 512.52L657.18 553.55" stroke="hsl(228.5, 77.2%, 51.5%)" stroke-width="1.5"></path><path d="M541.15 512.52L520.8 646.69" stroke="hsl(228.5, 77.2%, 51.5%)" stroke-width="1.5"></path><path d="M541.15 512.52L658.75 680.48" stroke="hsl(228.5, 77.2%, 51.5%)" stroke-width="1.5"></path><path d="M520.8 646.69L520.8 646.69" stroke="hsl(228.5, 77.2%, 51.5%)" stroke-width="1.5"></path><path d="M707.21 362.87L707.21 362.87" stroke="hsl(228.5, 77.2%, 51.5%)" stroke-width="1.5"></path><path d="M707.21 362.87L860.06 339.96" stroke="hsl(228.5, 77.2%, 51.5%)" stroke-width="1.5"></path><path d="M707.21 362.87L828.06 489.67" stroke="hsl(228.5, 77.2%, 51.5%)" stroke-width="1.5"></path><path d="M707.21 362.87L657.18 553.55" stroke="hsl(228.5, 77.2%, 51.5%)" stroke-width="1.5"></path><path d="M707.21 362.87L541.15 512.52" stroke="hsl(228.5, 77.2%, 51.5%)" stroke-width="1.5"></path><path d="M707.21 362.87L963.2 506.18" stroke="hsl(228.5, 77.2%, 51.5%)" stroke-width="1.5"></path><path d="M707.21 362.87L807.5 645.22" stroke="hsl(228.5, 77.2%, 51.5%)" stroke-width="1.5"></path><path d="M657.18 553.55L657.18 553.55" stroke="hsl(228.5, 77.2%, 51.5%)" stroke-width="1.5"></path><path d="M657.18 553.55L658.75 680.48" stroke="hsl(228.5, 77.2%, 51.5%)" stroke-width="1.5"></path><path d="M657.18 553.55L520.8 646.69" stroke="hsl(228.5, 77.2%, 51.5%)" stroke-width="1.5"></path><path d="M658.75 680.48L658.75 680.48" stroke="hsl(228.5, 77.2%, 51.5%)" stroke-width="1.5"></path><path d="M658.75 680.48L520.8 646.69" stroke="hsl(228.5, 77.2%, 51.5%)" stroke-width="1.5"></path><path d="M658.75 680.48L807.5 645.22" stroke="hsl(228.5, 77.2%, 51.5%)" stroke-width="1.5"></path><path d="M658.75 680.48L828.06 489.67" stroke="hsl(228.5, 77.2%, 51.5%)" stroke-width="1.5"></path><path d="M860.06 339.96L860.06 339.96" stroke="hsl(228.5, 77.2%, 51.5%)" stroke-width="1.5"></path><path d="M860.06 339.96L828.06 489.67" stroke="hsl(228.5, 77.2%, 51.5%)" stroke-width="1.5"></path><path d="M860.06 339.96L1011.26 386.04" stroke="hsl(228.5, 77.2%, 51.5%)" stroke-width="1.5"></path><path d="M860.06 339.96L963.2 506.18" stroke="hsl(228.5, 77.2%, 51.5%)" stroke-width="1.5"></path><path d="M860.06 339.96L657.18 553.55" stroke="hsl(228.5, 77.2%, 51.5%)" stroke-width="1.5"></path><path d="M860.06 339.96L807.5 645.22" stroke="hsl(228.5, 77.2%, 51.5%)" stroke-width="1.5"></path><path d="M828.06 489.67L828.06 489.67" stroke="hsl(228.5, 77.2%, 51.5%)" stroke-width="1.5"></path><path d="M828.06 489.67L963.2 506.18" stroke="hsl(228.5, 77.2%, 51.5%)" stroke-width="1.5"></path><path d="M828.06 489.67L807.5 645.22" stroke="hsl(228.5, 77.2%, 51.5%)" stroke-width="1.5"></path><path d="M807.5 645.22L807.5 645.22" stroke="hsl(228.5, 77.2%, 51.5%)" stroke-width="1.5"></path><path d="M807.5 645.22L965.94 640.61" stroke="hsl(228.5, 77.2%, 51.5%)" stroke-width="1.5"></path><path d="M1011.26 386.04L1011.26 386.04" stroke="hsl(228.5, 77.2%, 51.5%)" stroke-width="1.5"></path><path d="M1011.26 386.04L963.2 506.18" stroke="hsl(228.5, 77.2%, 51.5%)" stroke-width="1.5"></path><path d="M1011.26 386.04L1141.07 534.48" stroke="hsl(228.5, 77.2%, 51.5%)" stroke-width="1.5"></path><path d="M1011.26 386.04L828.06 489.67" stroke="hsl(228.5, 77.2%, 51.5%)" stroke-width="1.5"></path><path d="M963.2 506.18L963.2 506.18" stroke="hsl(228.5, 77.2%, 51.5%)" stroke-width="1.5"></path><path d="M963.2 506.18L965.94 640.61" stroke="hsl(228.5, 77.2%, 51.5%)" stroke-width="1.5"></path><path d="M965.94 640.61L965.94 640.61" stroke="hsl(228.5, 77.2%, 51.5%)" stroke-width="1.5"></path><path d="M965.94 640.61L828.06 489.67" stroke="hsl(228.5, 77.2%, 51.5%)" stroke-width="1.5"></path><path d="M1141.07 534.48L1141.07 534.48" stroke="hsl(228.5, 77.2%, 51.5%)" stroke-width="1.5"></path><path d="M1141.07 534.48L963.2 506.18" stroke="hsl(228.5, 77.2%, 51.5%)" stroke-width="1.5"></path><path d="M1141.07 534.48L1277.98 403.89" stroke="hsl(228.5, 77.2%, 51.5%)" stroke-width="1.5"></path><path d="M1299.14 -98.23L1299.14 -98.23" stroke="hsl(228.5, 77.2%, 51.5%)" stroke-width="1.5"></path><path d="M1299.14 -98.23L1440.25 -97.59" stroke="hsl(228.5, 77.2%, 51.5%)" stroke-width="1.5"></path><path d="M1299.14 -98.23L1407.04 57.42" stroke="hsl(228.5, 77.2%, 51.5%)" stroke-width="1.5"></path><path d="M1299.14 -98.23L1581.97 -100.01" stroke="hsl(228.5, 77.2%, 51.5%)" stroke-width="1.5"></path><path d="M1299.14 -98.23L1564.68 94.41" stroke="hsl(228.5, 77.2%, 51.5%)" stroke-width="1.5"></path><path d="M1299.14 -98.23L1252.93 229.05" stroke="hsl(228.5, 77.2%, 51.5%)" stroke-width="1.5"></path><path d="M1252.93 229.05L1252.93 229.05" stroke="hsl(228.5, 77.2%, 51.5%)" stroke-width="1.5"></path><path d="M1252.93 229.05L1400.7 258.99" stroke="hsl(228.5, 77.2%, 51.5%)" stroke-width="1.5"></path><path d="M1252.93 229.05L1277.98 403.89" stroke="hsl(228.5, 77.2%, 51.5%)" stroke-width="1.5"></path><path d="M1252.93 229.05L1407.04 57.42" stroke="hsl(228.5, 77.2%, 51.5%)" stroke-width="1.5"></path><path d="M1277.98 403.89L1277.98 403.89" stroke="hsl(228.5, 77.2%, 51.5%)" stroke-width="1.5"></path><path d="M1277.98 403.89L1434.23 495.44" stroke="hsl(228.5, 77.2%, 51.5%)" stroke-width="1.5"></path><path d="M1277.98 403.89L1400.7 258.99" stroke="hsl(228.5, 77.2%, 51.5%)" stroke-width="1.5"></path><path d="M1272.03 694.35L1272.03 694.35" stroke="hsl(228.5, 77.2%, 51.5%)" stroke-width="1.5"></path><path d="M1272.03 694.35L1432.27 677" stroke="hsl(228.5, 77.2%, 51.5%)" stroke-width="1.5"></path><path d="M1272.03 694.35L1141.07 534.48" stroke="hsl(228.5, 77.2%, 51.5%)" stroke-width="1.5"></path><path d="M1272.03 694.35L1434.23 495.44" stroke="hsl(228.5, 77.2%, 51.5%)" stroke-width="1.5"></path><path d="M1272.03 694.35L1558.43 671.74" stroke="hsl(228.5, 77.2%, 51.5%)" stroke-width="1.5"></path><path d="M1440.25 -97.59L1440.25 -97.59" stroke="hsl(228.5, 77.2%, 51.5%)" stroke-width="1.5"></path><path d="M1440.25 -97.59L1581.97 -100.01" stroke="hsl(228.5, 77.2%, 51.5%)" stroke-width="1.5"></path><path d="M1400.7 258.99L1400.7 258.99" stroke="hsl(228.5, 77.2%, 51.5%)" stroke-width="1.5"></path><path d="M1400.7 258.99L1577.18 244.11" stroke="hsl(228.5, 77.2%, 51.5%)" stroke-width="1.5"></path><path d="M1400.7 258.99L1407.04 57.42" stroke="hsl(228.5, 77.2%, 51.5%)" stroke-width="1.5"></path><path d="M1432.27 677L1432.27 677" stroke="hsl(228.5, 77.2%, 51.5%)" stroke-width="1.5"></path><path d="M1432.27 677L1558.43 671.74" stroke="hsl(228.5, 77.2%, 51.5%)" stroke-width="1.5"></path><path d="M1432.27 677L1434.23 495.44" stroke="hsl(228.5, 77.2%, 51.5%)" stroke-width="1.5"></path><path d="M1581.97 -100.01L1581.97 -100.01" stroke="hsl(228.5, 77.2%, 51.5%)" stroke-width="1.5"></path><path d="M1581.97 -100.01L1564.68 94.41" stroke="hsl(228.5, 77.2%, 51.5%)" stroke-width="1.5"></path><path d="M1577.18 244.11L1577.18 244.11" stroke="hsl(228.5, 77.2%, 51.5%)" stroke-width="1.5"></path><path d="M1577.18 244.11L1388.73 339.8" stroke="hsl(228.5, 77.2%, 51.5%)" stroke-width="1.5"></path><path d="M1577.18 244.11L1407.04 57.42" stroke="hsl(228.5, 77.2%, 51.5%)" stroke-width="1.5"></path><path d="M1577.18 244.11L1434.23 495.44" stroke="hsl(228.5, 77.2%, 51.5%)" stroke-width="1.5"></path><path d="M1575.01 534.99L1575.01 534.99" stroke="hsl(228.5, 77.2%, 51.5%)" stroke-width="1.5"></path><path d="M1575.01 534.99L1558.43 671.74" stroke="hsl(228.5, 77.2%, 51.5%)" stroke-width="1.5"></path><path d="M1575.01 534.99L1432.27 677" stroke="hsl(228.5, 77.2%, 51.5%)" stroke-width="1.5"></path><path d="M1575.01 534.99L1388.73 339.8" stroke="hsl(228.5, 77.2%, 51.5%)" stroke-width="1.5"></path><path d="M1575.01 534.99L1577.18 244.11" stroke="hsl(228.5, 77.2%, 51.5%)" stroke-width="1.5"></path><path d="M1558.43 671.74L1558.43 671.74" stroke="hsl(228.5, 77.2%, 51.5%)" stroke-width="1.5"></path><path d="M1558.43 671.74L1434.23 495.44" stroke="hsl(228.5, 77.2%, 51.5%)" stroke-width="1.5"></path><path d="M1558.43 671.74L1606.91 398.2" stroke="hsl(228.5, 77.2%, 51.5%)" stroke-width="1.5"></path><circle r="25" cx="-96.19" cy="689.32" fill="url(&quot;#SvgjsRadialGradient1001&quot;)"></circle><circle r="25" cx="1152.92" cy="211.73" fill="url(&quot;#SvgjsRadialGradient1001&quot;)"></circle><circle r="25" cx="1092.73" cy="639.34" fill="url(&quot;#SvgjsRadialGradient1001&quot;)"></circle><circle r="25" cx="1301.34" cy="61.35" fill="url(&quot;#SvgjsRadialGradient1001&quot;)"></circle><circle r="25" cx="1407.04" cy="57.42" fill="url(&quot;#SvgjsRadialGradient1001&quot;)"></circle><circle r="25" cx="1388.73" cy="339.8" fill="url(&quot;#SvgjsRadialGradient1001&quot;)"></circle><circle r="25" cx="1434.23" cy="495.44" fill="url(&quot;#SvgjsRadialGradient1001&quot;)"></circle><circle r="25" cx="1564.68" cy="94.41" fill="url(&quot;#SvgjsRadialGradient1001&quot;)"></circle><circle r="25" cx="1606.91" cy="398.2" fill="url(&quot;#SvgjsRadialGradient1001&quot;)"></circle><circle r="5" cx="-70.89" cy="552.14" fill="#8b9ad9"></circle><circle r="5" cx="103.12" cy="488.36" fill="#8b9ad9"></circle><circle r="5" cx="46.06" cy="643.75" fill="#8b9ad9"></circle><circle r="5" cx="223.56" cy="545.76" fill="#8b9ad9"></circle><circle r="5" cx="360.24" cy="528.27" fill="#8b9ad9"></circle><circle r="5" cx="408.74" cy="691.95" fill="#8b9ad9"></circle><circle r="5" cx="541.15" cy="512.52" fill="#8b9ad9"></circle><circle r="5" cx="520.8" cy="646.69" fill="#8b9ad9"></circle><circle r="5" cx="707.21" cy="362.87" fill="#8b9ad9"></circle><circle r="5" cx="657.18" cy="553.55" fill="#8b9ad9"></circle><circle r="5" cx="658.75" cy="680.48" fill="#8b9ad9"></circle><circle r="5" cx="860.06" cy="339.96" fill="#8b9ad9"></circle><circle r="5" cx="828.06" cy="489.67" fill="#8b9ad9"></circle><circle r="5" cx="807.5" cy="645.22" fill="#8b9ad9"></circle><circle r="5" cx="1011.26" cy="386.04" fill="#8b9ad9"></circle><circle r="5" cx="963.2" cy="506.18" fill="#8b9ad9"></circle><circle r="5" cx="965.94" cy="640.61" fill="#8b9ad9"></circle><circle r="5" cx="1141.07" cy="534.48" fill="#8b9ad9"></circle><circle r="5" cx="1299.14" cy="-98.23" fill="#8b9ad9"></circle><circle r="5" cx="1252.93" cy="229.05" fill="#8b9ad9"></circle><circle r="5" cx="1277.98" cy="403.89" fill="#8b9ad9"></circle><circle r="5" cx="1272.03" cy="694.35" fill="#8b9ad9"></circle><circle r="5" cx="1440.25" cy="-97.59" fill="#8b9ad9"></circle><circle r="5" cx="1400.7" cy="258.99" fill="#8b9ad9"></circle><circle r="5" cx="1432.27" cy="677" fill="#8b9ad9"></circle><circle r="5" cx="1581.97" cy="-100.01" fill="#8b9ad9"></circle><circle r="5" cx="1577.18" cy="244.11" fill="#8b9ad9"></circle><circle r="5" cx="1575.01" cy="534.99" fill="#8b9ad9"></circle><circle r="5" cx="1558.43" cy="671.74" fill="#8b9ad9"></circle></g><defs><mask id="SvgjsMask1000"><rect width="1440" height="560" fill="#ffffff"></rect></mask><radialGradient id="SvgjsRadialGradient1001"><stop stop-color="#ffffff" offset="0.1"></stop><stop stop-color="#1735b3" offset="0.2"></stop><stop stop-color="rgba(23, 53, 179, 0)" offset="1"></stop></radialGradient></defs></svg>